<svg fill="white" xmlns="http://www.w3.org/2000/svg" enable-background="new 0 0 64 64" viewBox="0 0 64 64">
<rect width="17.62" height="3.84" x="23.19" y="1.81"/><path d="M32,31.55c-1.49,0-2.7,1.21-2.7,2.7s1.21,2.7,2.7,2.7c1.49,0,2.7-1.21,2.7-2.7S33.49,31.55,32,31.55z"/>
<path d="M39.66 18.47H24.34c-.73 0-1.45-.12-2.12-.35-.7 1.07-1.19 2.18-1.34 3.2 1.89 11.71 2.78 21.97 3.26 33.33.19 4.22 3.64 7.55 7.86 7.55 4.22 0 7.68-3.33 7.86-7.55.49-11.36 1.37-21.62 3.26-33.33-.14-1.02-.63-2.13-1.34-3.2C41.11 18.35 40.39 18.47 39.66 18.47zM38.16 33.23L36.14 47.5c-.29 2.06-2.06 3.6-4.14 3.6s-3.85-1.53-4.14-3.6l-2.02-14.27c-.36-2.52 1.6-4.77 4.14-4.77h4.04C36.56 28.46 38.51 30.71 38.16 33.23zM44.33 11.36l-.59-5.93c-.06-.64-.45-1.17-.98-1.46V7.6H21.24V3.97c-.53.29-.92.82-.98 1.46l-.59 5.93c-.28 2.76 1.89 5.16 4.67 5.16h15.33C42.44 16.52 44.61 14.12 44.33 11.36zM36.62 15.06h-9.25c-.54 0-.97-.44-.97-.97s.44-.97.97-.97h9.25c.54 0 .97.44.97.97S37.16 15.06 36.62 15.06zM39.5 11.22h-15c-.54 0-.97-.44-.97-.97s.44-.97.97-.97h15c.54 0 .97.44.97.97S40.04 11.22 39.5 11.22z"/></svg>