<svg xmlns="http://www.w3.org/2000/svg" enable-background="new 0 0 32 32" viewBox="0 0 32 32"><path d="M13.4,17.4L13,15.9l-0.4,1.3c-0.6,2.1-3.9,4-4.4,4.2c-0.4,0.2-1.5,1.2-1.8,1.9c-0.5,1-0.5,2-0.1,2.9
			c0.3,0.7,0.8,1.3,1.5,1.6C8.1,28,8.5,28,8.9,28c0.5,0,1-0.1,1.5-0.4c0.8-0.4,1.5-1.1,1.8-1.9c0.1-0.2,0.1-0.3,0.2-0.5
			c0.2-0.5,0.2-1,0.2-1.5c0.3-2,1-3.3,2.3-4.4l0.3-0.3L13.4,17.4z M11.6,23.7v0.1c0,0.4,0,0.8-0.1,1.2c0,0.1-0.1,0.2-0.2,0.4
			c-0.3,0.7-0.8,1.2-1.4,1.5c-0.6,0.3-1.2,0.3-1.7,0.1c-0.5-0.2-0.8-0.5-1-1c-0.3-0.7-0.2-1.5,0.1-2.2c0.2-0.5,1.2-1.3,1.4-1.4
			c0.6-0.3,3.3-1.9,4.4-3.8l0.7,0.6C12.6,20.2,11.9,21.7,11.6,23.7z"/><path fill="none" stroke="#000" stroke-miterlimit="10" d="M9,25.9c-0.2,0-0.3,0-0.4-0.1c-0.5-0.2-0.7-0.6-0.7-1.1c0-0.2,0.1-0.5,0.2-0.7c0.2-0.4,0.5-0.7,0.9-0.8
		c0.2-0.1,0.4-0.1,0.6-0.1c0.2,0,0.3,0,0.5,0.1c0.3,0.1,0.5,0.3,0.7,0.6c0.1,0.3,0.1,0.8-0.1,1.1c-0.2,0.4-0.5,0.7-0.9,0.8
		C9.5,25.9,9.2,25.9,9,25.9z"/><path d="M26,29.2c0,0.2-0.1,0.5-0.4,0.6l-0.2,0.1c-0.2,0-0.4,0.1-0.5,0.1c-0.8,0-1.7-0.3-2.5-0.6c-1.5-0.7-2.5-1.6-3.2-3
		c-0.3-0.3-0.6-0.7-0.8-1.2c-0.3-0.6-0.4-1.3-0.4-1.9c-0.1-1.6-0.5-2.7-1.4-3.6l-2.8-2.6l-0.7-2.4c0,0,0-0.2,0-0.2
		c0-0.3,0.2-0.5,0.5-0.5c0.3,0,0.5,0.2,0.5,0.5l0.6,2.1l2.6,2.4c1,1.1,1.6,2.4,1.7,4.3c0,0.5,0,1,0.3,1.5c0.2,0.3,0.8,1.1,0.8,1.1
		c0.5,1,1.1,1.7,1.9,2.2c-0.2-0.4-0.3-0.9,0.1-1.5l0.3-0.2c0.8-0.3,1.2-1.1,1.2-2c0-0.4-0.1-0.8-0.3-1.2c-0.4-0.8-1-1.4-1.8-1.6
		c-0.1,0-0.3,0-0.5-0.1c-1.1-0.3-2-0.9-2.6-1.7L15,12.8l-3-6l1.3,4.6c0,0,0,0.1,0,0.1v0c0,0.3-0.2,0.5-0.5,0.5
		c-0.3,0-0.5-0.2-0.6-0.5l-2-7.4l0.6-2.1l8.4,17.2c0.4,0.6,1.2,1.1,2,1.3c0.1,0,0.3,0.1,0.5,0.1c1.1,0.3,2,1.1,2.4,2.2
		c0.3,0.5,0.4,1.1,0.4,1.6c0,1.3-0.7,2.4-1.8,2.9c-0.1,0.1-0.1,0.2,0,0.4c0.4,0.3,1,0.8,2.5,0.8c0.1,0,0.2,0,0.3,0.1
		C25.7,28.7,26,28.9,26,29.2z"/><circle cx="15.5" cy="15.8" r=".8"/><circle cx="13.2" cy="13" r=".5"/><path fill="none" stroke="#000" stroke-miterlimit="10" d="M21.6,25.4c-0.6,0-1.3-0.4-1.6-1c-0.2-0.4-0.2-0.8-0.1-1.1c0.1-0.3,0.4-0.5,0.7-0.6c0.1,0,0.3-0.1,0.4-0.1
		c0.3,0,0.6,0.1,0.9,0.3c0.3,0.2,0.5,0.4,0.7,0.7c0.2,0.4,0.2,0.8,0.1,1.1c-0.1,0.3-0.4,0.5-0.7,0.6C21.9,25.4,21.7,25.4,21.6,25.4z
		"/><path d="M20.2,2l-4.4,8.9l2,4.1l3.3-11.8L20.2,2z M17.4,12.6l-0.6-1.3L19,6.6L17.4,12.6z"/></svg>