<svg xmlns="http://www.w3.org/2000/svg" enable-background="new 0 0 64 64" viewBox="0 0 64 64"><path fill="#010101" d="M22.4,30.1c-3.1,2-6.7,3-10.4,3c-3.1,0-6.1-0.7-8.8-2.1c-0.6-0.3-0.6-0.8-0.6-1s0.1-0.7,0.6-1L40,12.8
		l0.3-0.1c1.3-0.6,4.8-2.2,7.1-2.2c0,1.1-0.1,2.1-0.1,3.1c0,0.3-0.1,0.5-0.1,0.8L22.4,30.1z M54.7,21.1c-0.1,5.3-1,10.3-2.6,15.1
		c-1.8,5.4-4.2,10.1-7.2,14.1c-1.1,1.7-2.4,3.2-3.8,4.7c-0.4,0.5-0.8,1-1.2,1.4c-1.2,1.3-2.5,2.5-3.9,3.8c-0.6,0.6-1.3,1.2-1.9,1.7
		c-1.4,1.3-3.2,2-5.1,2c-2.1,0-4-0.8-5.4-2.3c-2.8-3-2.7-7.7,0.3-10.5c0.3-0.3,0.7-0.6,1-0.8l0.8-0.5c0.6-0.4,1.3-0.8,2-1.2
		c1.1-0.7,2.2-1.3,3.3-2.1c0.5-0.4,0.9-0.7,1.4-1.1c1.2-0.9,2.4-1.8,3.4-2.9c2.9-2.5,5.4-5.8,7.9-9.9c2.1-3.6,3.7-7.8,4.7-12.2
		c0.2-0.7,0.3-1.4,0.4-2.1c0.1-0.4,0.1-0.8,0.2-1.2v-0.3c0.1-1,0.3-2,0.4-3.1c0.2-2.2,0.2-4.6,0-6.7V6.7c0-0.5,0.1-0.9,0.4-1.3
		C50.2,5.2,50.6,5,51.1,5h0.1c0.8,0,1.5,0.5,1.7,1.3c0.7,2.3,1.1,4.6,1.5,7.4c0.1,1.3,0.2,2.6,0.3,3.7c0,0.4,0,0.8,0,1.3
		C54.7,19.4,54.7,20.3,54.7,21.1z M59.7,4.8l-4.1,3.5c-0.2-0.8-0.4-1.6-0.6-2.4L61.2,0C61.7,1.7,61.2,3.6,59.7,4.8z"/></svg>