<svg xmlns="http://www.w3.org/2000/svg" width="32" height="32" viewBox="0 0 32 32"><g transform="translate(17.293 -1364.479)"><path fill="#fff" d="M-7.7339807 1371.823l11.6798888 0 0 2.1939-11.6798888 0zM-7.1585 1376.987c.8667 3.2346 3.3735 4.5 3.3735 6.9058l0 4.4581c0 .9066.6681 1.6363 1.498 1.6363l.9986 0c.8299 0 1.4979-.7297 1.4979-1.6363l0-4.4581c0-1.4058 2.4987-3.7234 3.3514-6.9058"/><path fill="#c2e4f8" d="m -7.7257,1374.4861 c 0.3827,3.5897 1.9336,4.597 1.9336,6.3281 l 0,8.1719 c 0,1.662 1.338,3 3,3 l 2,0 c 1.662,0 3,-1.338 3,-3 l 0,-8.1719 c 0,-1.7311 1.5165,-2.7384 1.8906,-6.3281 z m 5.9336,3 c 1.6283,0 3.238,0.4864 4.1015,1.3145 -0.3617,0.7302 -0.7709,1.4142 -1.166,2.0371 -0.7274,1.1469 -1.4336,2.0555 -1.4336,3.0547 l 0,4.4589 c 0,0.661 -0.4612,1.1368 -0.998,1.1368 l -0.9981,0 c -0.5368,0 -0.998,-0.4758 -0.998,-1.1368 l 0,-4.4589 c 0,-1.3766 -0.7178,-2.4063 -1.457,-3.4336 -0.3823,-0.5311 -0.7702,-1.0788 -1.1172,-1.6875 0.8711,-0.8093 2.4582,-1.2852 4.0664,-1.2852 z"/><path fill="#249fe6" style="line-height:normal;text-indent:0;text-align:start;text-decoration-line:none;text-decoration-style:solid;text-decoration-color:#000;text-transform:none;block-progression:tb;isolation:auto;mix-blend-mode:normal" d="m -7.8203125,1369.4902 a 0.50005,0.50005 0 0 0 -0.4707031,0.4942 l 0,0.014 -0.017578,2.8067 c 0,2.5673 0.5297343,4.1742 1.0507813,5.3418 0.521047,1.1676 0.9648437,1.8488 0.9648437,2.6661 l 0,8.1718 c 0,1.9304 1.5696487,3.5 3.5,3.5 l 2.00000005,0 c 1.93035135,0 3.49999995,-1.5696 3.49999995,-3.5 l 0,-8.1718 c 0,-0.821 0.4358728,-1.5028 0.9453126,-2.67 0.508977,-1.1661 1.0264033,-2.7703 1.0273437,-5.332 l 0,-0.01 0.027344,-2.8046 0,-0.01 0,0 a 0.50005,0.50005 0 0 0 -0.9980468,-0.014 l 0,0 -0.027344,1.5039 -4.47265622,0 -1.99999998,0 -4.4667969,0 -0.033203,-1.4961 0,-0.016 a 0.50005,0.50005 0 0 0 -0.5292969,-0.4844 z m 0.5136719,2.9961 4.515625,0 1.99999998,0 4.47460942,0 -0.00391,0.3164 c 0,2.4343 -0.4666491,3.8454 -0.9433594,4.9375 -0.4767103,1.0922 -1.0292969,1.9165 -1.0292969,3.0704 l 0,8.1718 c 0,1.3937 -1.10635133,2.5 -2.49999995,2.5 l -2.00000005,0 c -1.3936486,0 -2.5,-1.1063 -2.5,-2.5 l 0,-8.1718 c 0,-1.1576 -0.5635782,-1.9806 -1.0507812,-3.0723 -0.4868859,-1.0911 -0.9642226,-2.5018 -0.9648438,-4.9317 l 0,0 0.00195,-0.3203 z" color="#000" font-family="sans-serif" font-weight="400" overflow="visible"/><path fill="#249fe6" fill-rule="evenodd" style="line-height:normal;text-indent:0;text-align:start;text-decoration-line:none;text-decoration-style:solid;text-decoration-color:#000;text-transform:none;block-progression:tb;isolation:auto;mix-blend-mode:normal" d="M-4.2910156 1369.4863l0 3 1 0 0-3-1 0zM-2.2910156 1369.4863l0 3 1 0 0-3-1 0zM-.29101562 1369.4863l0 3 1 0 0-3-1 0zM-6.2910156 1369.4863l0 3 1 0 0-3-1 0zM1.7089844 1369.4863l0 3 1 0 0-3-1 0z" color="#000" font-family="sans-serif" font-weight="400" overflow="visible"/><path fill="#249fe6" style="line-height:normal;text-indent:0;text-align:start;text-decoration-line:none;text-decoration-style:solid;text-decoration-color:#000;text-transform:none;block-progression:tb;isolation:auto;mix-blend-mode:normal" d="m -7.1484375,1376.4805 a 0.50005,0.50005 0 0 0 -0.4921875,0.6367 c 0.4603222,1.7179 1.3570958,2.9103 2.0878906,3.9258 0.7307948,1.0155 1.2675782,1.8203 1.2675782,2.8496 l 0,4.459 c 0,1.1522 0.8750593,2.1347 1.9980468,2.1347 l 0.9980469,0 c 1.12298752,0 1.99804688,-0.9825 1.99804688,-2.1347 l 0,-4.459 c 0,-0.4067 0.54425022,-1.3607 1.27929682,-2.5196 0.7350467,-1.1588 1.6045911,-2.576 2.0546876,-4.2558 a 0.50005,0.50005 0 1 0 -0.9648438,-0.2598 c -0.4026035,1.5026 -1.2080686,2.8335 -1.9355469,3.9805 -0.72747829,1.1469 -1.43359372,2.0555 -1.43359372,3.0547 l 0,4.459 c -1e-8,0.661 -0.4612344,1.1347 -0.99804688,1.1347 l -0.9980469,0 c -0.5368125,0 -0.9980468,-0.4738 -0.9980468,-1.1347 l 0,-4.459 c 0,-1.3766 -0.715798,-2.4063 -1.4550782,-3.4336 -0.7392802,-1.0273 -1.529169,-2.0849 -1.9355468,-3.6016 a 0.50005,0.50005 0 0 0 -0.4726563,-0.3769 z" color="#000" font-family="sans-serif" font-weight="400" overflow="visible"/><path fill="#249fe6" fill-rule="evenodd" style="line-height:normal;text-indent:0;text-align:start;text-decoration-line:none;text-decoration-style:solid;text-decoration-color:#000;text-transform:none;block-progression:tb;isolation:auto;mix-blend-mode:normal" d="m -1.7910156,1376.4863 c -1.8452381,0 -3.7062017,0.4992 -4.8535156,1.6465 l 0.7070312,0.707 c 0.8526861,-0.8526 2.4917225,-1.3535 4.1464844,-1.3535 1.65476188,0 3.2937983,0.5009 4.1464844,1.3535 l 0.7070312,-0.707 c -1.1473139,-1.1473 -3.00827753,-1.6465 -4.8535156,-1.6465 z" color="#000" font-family="sans-serif" font-weight="400" overflow="visible"/><path fill="#c2e4f8" d="m -1.7918715,1378.9869 c 0.554,0 0.99999995,0.446 0.99999995,1 l 0,1 c 0,0.554 -0.44599995,1 -0.99999995,1 -0.554,0 -1,-0.446 -1,-1 l 0,-1 c 0,-0.554 0.446,-1 1,-1 z"/><path fill="#249fe6" style="line-height:normal;text-indent:0;text-align:start;text-decoration-line:none;text-decoration-style:solid;text-decoration-color:#000;text-transform:none;block-progression:tb;isolation:auto;mix-blend-mode:normal" d="m -1.7910156,1378.4863 c -0.8223514,0 -1.5,0.6777 -1.5,1.5 l 0,1 c 0,0.8224 0.6776486,1.5 1.5,1.5 0.82235136,0 1.49999997,-0.6776 1.49999998,-1.5 l 0,-1 c -1e-8,-0.8223 -0.67764862,-1.5 -1.49999998,-1.5 z m 0,1 c 0.2856486,0 0.5,0.2144 0.5,0.5 l 0,1 c 0,0.2857 -0.2143514,0.5 -0.5,0.5 -0.2856486,0 -0.5,-0.2143 -0.5,-0.5 l 0,-1 c 0,-0.2856 0.2143514,-0.5 0.5,-0.5 z" color="#000" font-family="sans-serif" font-weight="400" overflow="visible"/><path fill="#249fe6" fill-rule="evenodd" style="line-height:normal;text-indent:0;text-align:start;text-decoration-line:none;text-decoration-style:solid;text-decoration-color:#000;text-transform:none;block-progression:tb;isolation:auto;mix-blend-mode:normal" d="m -7.6269531,1373.4863 0,1 11.7148437,0 0,-1 -11.7148437,0 z" color="#000" font-family="sans-serif" font-weight="400" overflow="visible"/></g></svg>