<svg xmlns="http://www.w3.org/2000/svg" fill="white" enable-background="new 0 0 70 70" viewBox="0 0 70 70"><path d="M58.7,50.8c-0.2-0.2-0.5-0.3-0.8-0.3H47.3c5.8-4,9.4-10.6,9.4-17.8C56.7,20.7,47,11,35,11s-21.7,9.7-21.7,21.7
		c0,7.2,3.6,13.8,9.4,17.8H12.1c-0.3,0-0.6,0.1-0.8,0.3c-0.2,0.2-0.3,0.5-0.2,0.8c0.6,4.2,4.2,7.4,8.4,7.4h31c4.2,0,7.9-3.2,8.4-7.4
		C59,51.3,58.9,51.1,58.7,50.8z M19.1,32.7c0-8.8,7.1-15.9,15.9-15.9s15.9,7.1,15.9,15.9c0,8.8-7.1,15.9-15.9,15.9
		S19.1,41.4,19.1,32.7z"/><path d="M35,46.6c7.7,0,13.9-6.2,13.9-13.9c0-7.7-6.2-13.9-13.9-13.9S21.1,25,21.1,32.7C21.1,40.3,27.3,46.6,35,46.6z M35.3,24.4
		c0.4-0.4,1-0.4,1.4,0s0.4,1,0,1.4l-8.7,8.7c-0.2,0.2-0.5,0.3-0.7,0.3s-0.5-0.1-0.7-0.3c-0.4-0.4-0.4-1,0-1.4L35.3,24.4z M26.4,27.7
		l3.7-3.7c0.4-0.4,1-0.4,1.4,0s0.4,1,0,1.4l-3.7,3.7c-0.2,0.2-0.5,0.3-0.7,0.3s-0.5-0.1-0.7-0.3C26,28.8,26,28.1,26.4,27.7z"/></svg>