<svg xmlns="http://www.w3.org/2000/svg" fill="white" data-name="Layer 1" viewBox="0 0 96 96"><path d="M75.1687,11.01541H20.8313a1.17216,1.17216,0,0,0-1.17706,1.167V44.42087a1.17219,1.17219,0,0,0,1.17706,1.167H75.1687a1.17219,1.17219,0,0,0,1.17706-1.167V12.18241A1.17216,1.17216,0,0,0,75.1687,11.01541ZM73.99152,42.9993a.25457.25457,0,0,1-.25452.25458H22.263a.25457.25457,0,0,1-.25452-.25458V13.604a.25459.25459,0,0,1,.25452-.25464H73.737a.25459.25459,0,0,1,.25452.25464Z"/><path d="M82.64813,56.99948a3.28707,3.28707,0,0,0-3.17309-2.396H73.35742V51.60331h5.76483a3.27725,3.27725,0,0,0,3.29139-3.26294V8.26285A3.2772,3.2772,0,0,0,79.12225,5H16.87775a3.2772,3.2772,0,0,0-3.29139,3.26288V48.34037a3.27725,3.27725,0,0,0,3.29139,3.26294h5.76483v3.00018H16.525a3.287,3.287,0,0,0-3.173,2.396L5.12775,86.58414A3.4799,3.4799,0,0,0,8.49634,91H87.50366a3.4799,3.4799,0,0,0,3.36859-4.41583ZM18.00629,48.01206a.79748.79748,0,0,1-.79743-.79743V9.38864a.79744.79744,0,0,1,.79743-.79742H77.99371a.79744.79744,0,0,1,.79743.79742v37.826a.79748.79748,0,0,1-.79743.79743Zm49.03436,3.59125v3.00018H28.95935V51.60331ZM46.82727,81.37265a2.55149,2.55149,0,0,1-2.55151,2.55152h-31.293a2.55158,2.55158,0,0,1-2.45844-3.23481l.368-1.32379a2.55156,2.55156,0,0,1,2.45832-1.8681H44.27576A2.55148,2.55148,0,0,1,46.82727,80.049Zm0-9.12a2.55143,2.55143,0,0,1-2.55151,2.55145h-28.758a2.55141,2.55141,0,0,1-2.45825-3.23468l.60535-2.17816A2.55159,2.55159,0,0,1,16.12317,67.523H44.27576a2.55145,2.55145,0,0,1,2.55151,2.55152Zm0-9.97443a2.55143,2.55143,0,0,1-2.55151,2.55145H18.29028a2.55138,2.55138,0,0,1-2.45819-3.23474l.42578-1.532a2.55148,2.55148,0,0,1,2.45832-1.8681H44.27576a2.55143,2.55143,0,0,1,2.55151,2.55145Zm36.19,21.646H52.09564a2.55149,2.55149,0,0,1-2.55151-2.55152V60.74625a2.55143,2.55143,0,0,1,2.55151-2.55145H77.28381a2.55148,2.55148,0,0,1,2.45832,1.8681l5.73358,20.62646A2.55158,2.55158,0,0,1,83.01727,83.92417Z"/></svg>