<svg xmlns="http://www.w3.org/2000/svg" data-name="Layer 1" viewBox="0 0 512 512"><rect width="62" height="19" x="400" y="179"/><path d="M422,281H352v14h77a7,7,0,0,0,7-7V205H422Z"/><rect width="62" height="19" x="50" y="179"/><path d="M159,281H87V205H73v83a7,7,0,0,0,7,7h79Z"/><polygon points="275.978 47 287 47 287 28 225 28 225 47 236.022 47 275.978 47"/><path d="M187.73,229H324.27a14.347,14.347,0,0,0,10.461-4.733,14.588,14.588,0,0,0,3.815-10.935L329.911,88H182.089l-8.635,125.393a14.6,14.6,0,0,0,3.815,10.939A14.286,14.286,0,0,0,187.73,229Z"/><rect width="26" height="13" x="243" y="61"/><path d="M276 260.448V243H236v17.448C249 261.054 263 261.054 276 260.448zM327.459 435.965l-2.164 20.91A6.865 6.865 0 0 1 318.332 463H193.668a6.865 6.865 0 0 1-6.963-6.125l-2.186-21.052c-31.933 6.686-44.052 16.243-44.052 21.024 0 4.361 9.59 11.776 30.645 17.753 22.438 6.369 52.4 9.876 84.355 9.876s61.918-3.507 84.356-9.876c21.055-5.977 30.644-13.431 30.644-17.792C370.467 452.122 358.642 442.651 327.459 435.965zM256 330.315q-18.528 0-37-1.57V346h72V328.913Q273.543 330.313 256 330.315z"/><polygon points="199.984 449 312.016 449 321.228 360 190.772 360 199.984 449"/><path d="M345,306.851V265.759a437.381,437.381,0,0,1-178,0v41.092A423.071,423.071,0,0,0,345,306.851Z"/></svg>