<svg xmlns="http://www.w3.org/2000/svg" fill="white" data-name="Layer 1" viewBox="0 0 64 64"><path d="M31.1 10.36a6.37 6.37 0 1 0-8.61 5.95v14h0a2.57 2.57 0 0 0-2.56 2.57V57.43A2.57 2.57 0 0 0 22.47 60H27a2.57 2.57 0 0 0 2.56-2.57V32.9A2.57 2.57 0 0 0 27 30.33h0v-14A6.38 6.38 0 0 0 31.1 10.36zm-10.73 0a4.37 4.37 0 1 1 4.37 4.36A4.37 4.37 0 0 1 20.37 10.36zM27.56 32.9V57.43A.56.56 0 0 1 27 58H22.47a.56.56 0 0 1-.56-.57V32.9a.56.56 0 0 1 .56-.57H27A.56.56 0 0 1 27.56 32.9zM25 16.72V30.33h-.49V16.72zM43.06 30.33h0V15.72a1 1 0 0 0-1-1H41.8V9.51A.6.6 0 0 1 42 9.06L45.14 5.9a1 1 0 0 0 0-1.42 1 1 0 0 0-1.41 0L40.57 7.64a2.62 2.62 0 0 0-.77 1.87v5.21h-.25a1 1 0 0 0-1 1V30.33h0A2.57 2.57 0 0 0 36 32.9V57.43A2.57 2.57 0 0 0 38.53 60h4.53a2.58 2.58 0 0 0 2.57-2.57V32.9A2.58 2.58 0 0 0 43.06 30.33zM40.55 16.72H41V30.33h-.49zm3.08 40.71a.57.57 0 0 1-.57.57H38.53a.56.56 0 0 1-.56-.57V32.9a.56.56 0 0 1 .56-.57h4.53a.57.57 0 0 1 .57.57z"/></svg>