<svg xmlns="http://www.w3.org/2000/svg" fill="white" data-name="Layer 1" viewBox="0 0 32 32"><path d="M22,2a16.5,16.5,0,0,0-3.64.58A12.14,12.14,0,0,1,16,3a6.89,6.89,0,0,1-1.71-.34A15,15,0,0,0,10,2,5,5,0,0,0,5,7c0,.26,0,.55,0,.87a23,23,0,0,0,1.07,8.48c.91,2.44.76,5.46.63,8.11a25.49,25.49,0,0,0,0,3.77c.1.93,1,1.63,2.29,1.79l.46,0a2,2,0,0,0,2-1.18,18.29,18.29,0,0,0,.64-3,15.11,15.11,0,0,1,.8-3.43c.62-1.27,3-5,3-5s.06,0,.08-.08c.53,1,2,3.79,2.3,4.79.73,2.17,2.21,6.7,2.21,6.7a1,1,0,0,0,.1.21,2.67,2.67,0,0,0,2.87.86,2.09,2.09,0,0,0,1.82-1.69c.14-1.25.19-3.26.25-5.38a51,51,0,0,1,.4-6.61A40.05,40.05,0,0,0,27,7,5.13,5.13,0,0,0,22,2ZM12,8a1,1,0,0,0-1,1A1,1,0,0,1,9,9a3,3,0,0,1,3-3,1,1,0,0,1,0,2Z"/></svg>