<svg xmlns="http://www.w3.org/2000/svg" fill="white" data-name="Layer 1" viewBox="0 0 96 96"><path d="M74.54565 12.123H90.0675A1.02261 1.02261 0 0 0 91 11.02962c0-1.46918-1.31427-2.88886-3.37933-3.555C81.22571 5.41176 73.69678 4.41109 67.52209 5.361c-3.18273.4895-5.38934 2.23309-5.38934 9.28314V81.35585c0 7.05 2.20661 8.7937 5.38934 9.2832 6.17469.94989 13.70362-.05084 20.09858-2.11371C89.68573 87.85921 91 86.43959 91 84.97035a1.02255 1.02255 0 0 0-.9325-1.09332H74.54565a1.87051 1.87051 0 0 1-1.67309-1.99677v-.04944a1.81047 1.81047 0 0 1 1.62207-1.92718A91.20911 91.20911 0 0 0 88.96454 78.618C90.0946 78.37764 91 77.90474 91 77.65486s-.9054-.72278-2.03546-.96314A91.2615 91.2615 0 0 0 74.54565 75.407a1.87051 1.87051 0 0 1-1.67309-1.99677v-.0495a1.81045 1.81045 0 0 1 1.62207-1.92712A91.20911 91.20911 0 0 0 88.96454 70.148C90.0946 69.90761 91 69.43464 91 69.18483s-.9054-.72278-2.03546-.96314A91.231 91.231 0 0 0 74.54565 66.9369a1.87044 1.87044 0 0 1-1.67309-1.9967v-.0495a1.81037 1.81037 0 0 1 1.62207-1.92712 91.25551 91.25551 0 0 0 14.46991-1.28565C90.0946 61.43757 91 60.96461 91 60.7148s-.9054-.72278-2.03546-.96314a91.22953 91.22953 0 0 0-14.41882-1.28479 1.87048 1.87048 0 0 1-1.67316-1.9967v-.04962a1.81019 1.81019 0 0 1 1.62213-1.927A91.25442 91.25442 0 0 0 88.96454 53.2079C90.0946 52.96754 91 52.49458 91 52.24476s-.9054-.72283-2.03546-.96313a91.21116 91.21116 0 0 0-14.41889-1.28491 2.028 2.028 0 0 1 0-3.99347A91.24259 91.24259 0 0 0 88.96454 44.7184C90.0946 44.478 91 44.00508 91 43.75526s-.9054-.72278-2.03546-.96313a91.2541 91.2541 0 0 0-14.46985-1.28565 1.8104 1.8104 0 0 1-1.62213-1.92718v-.04944a1.87051 1.87051 0 0 1 1.67316-1.99677 91.24652 91.24652 0 0 0 14.41882-1.28472C90.0946 36.008 91 35.53505 91 35.28523s-.9054-.72278-2.03546-.96313a91.24925 91.24925 0 0 0-14.46991-1.28577 1.81028 1.81028 0 0 1-1.62207-1.92706v-.04944a1.87051 1.87051 0 0 1 1.67309-1.99677 91.24519 91.24519 0 0 0 14.41889-1.28473C90.0946 27.538 91 27.065 91 26.8152s-.9054-.72284-2.03546-.96314A91.22148 91.22148 0 0 0 74.49463 24.5663a1.81029 1.81029 0 0 1-1.62207-1.92707v-.04949A1.87048 1.87048 0 0 1 74.54565 20.593a91.25188 91.25188 0 0 0 14.41889-1.28479C90.0946 19.068 91 18.595 91 18.34511s-.9054-.72278-2.03546-.96314A91.22971 91.22971 0 0 0 74.49463 16.0962a1.81017 1.81017 0 0 1-1.62207-1.927v-.0495A1.87048 1.87048 0 0 1 74.54565 12.123zM39.75629 63.88368a6.08551 6.08551 0 0 0-2.29 1.1438L33.0058 49.63277l.00476-.009a10.15661 10.15661 0 0 0 1.09955-3.3789C35.18878 38.5229 39.22852 8.3802 37.0517 5l-8.489 29.29822L20.07379 5C17.897 8.3802 21.93671 38.5229 23.01538 46.24489a10.158 10.158 0 0 0 1.09955 3.3789l.00482.009L19.65918 65.02748a6.08524 6.08524 0 0 0-2.28992-1.1438C12.22675 62.52974 6.859 67.456 5.37994 74.88667S6.87079 89.4388 12.01331 90.79274s8.54431-4.08991 10.02331-11.52063A24.00176 24.00176 0 0 0 22.285 69.72l6.27777-11.76245L34.84052 69.72a24.00187 24.00187 0 0 0 .24841 9.55213c1.479 7.43072 4.88074 12.87457 10.02325 11.52063s8.11237-8.47534 6.63336-15.90607S44.8988 62.52974 39.75629 63.88368zM17.653 78.49306a19.35444 19.35444 0 0 1-2.76648 7.36828c-1.21357 1.63526-2.24036 1.62842-3.08472 1.40613-3.09314-.81433-4.81293-5.99085-3.75543-11.30365s4.564-9.11334 7.6571-8.299c.84436.22229 1.77142.72992 2.24567 2.80951A20.55255 20.55255 0 0 1 17.653 78.49306zm10.78991-30.949a2.03687 2.03687 0 1 1 2.03687-2.03686A2.03689 2.03689 0 0 1 28.44293 47.54408zm16.8808 39.72339c-.84436.22229-1.87115.22913-3.08478-1.40613a19.35351 19.35351 0 0 1-2.76642-7.36828 20.55119 20.55119 0 0 1-.29614-8.01868c.47424-2.07959 1.40131-2.58722 2.24561-2.80951 3.09314-.81439 6.59967 2.98608 7.65716 8.299S48.41681 86.45314 45.32373 87.26747z"/></svg>