<svg xmlns="http://www.w3.org/2000/svg" data-name="Layer 1" viewBox="0 0 64 64"><path fill="#51ad42" d="M16.25 16H13V12.75A1.75 1.75 0 0 0 11.25 11H9.75A1.75 1.75 0 0 0 8 12.75V16H4.75A1.75 1.75 0 0 0 3 17.75v1.5A1.75 1.75 0 0 0 4.75 21H8v3.25A1.75 1.75 0 0 0 9.75 26h1.5A1.75 1.75 0 0 0 13 24.25V21h3.25A1.75 1.75 0 0 0 18 19.25v-1.5A1.75 1.75 0 0 0 16.25 16zM59.25 16H56V12.75A1.75 1.75 0 0 0 54.25 11h-1.5A1.75 1.75 0 0 0 51 12.75V16H47.75A1.75 1.75 0 0 0 46 17.75v1.5A1.75 1.75 0 0 0 47.75 21H51v3.25A1.75 1.75 0 0 0 52.75 26h1.5A1.75 1.75 0 0 0 56 24.25V21h3.25A1.75 1.75 0 0 0 61 19.25v-1.5A1.75 1.75 0 0 0 59.25 16z"/><path d="M38 12a6 6 0 1 0-6 6A6 6 0 0 0 38 12zm-6 4a4 4 0 1 1 4-4A4 4 0 0 1 32 16zM11.16 42.36a4 4 0 1 0-4.32 0A5.31 5.31 0 0 0 3 47.24V55a1 1 0 0 0 1 1H6v3c0 1.77 1 3 2.38 3H9.63C11 62 12 60.77 12 59V56h2a1 1 0 0 0 1-1V47.24A5.31 5.31 0 0 0 11.16 42.36zM9 37a2 2 0 1 1-2 2A2 2 0 0 1 9 37zm4 17H11a1 1 0 0 0-1 1v4c0 .41-.13 1-.37 1H8.38C8.13 60 8 59.41 8 59V55a1 1 0 0 0-1-1H5V47.24C5 45.45 6.79 44 9 44s4 1.45 4 3.24zM26.16 42.36a4 4 0 1 0-4.32 0A5.31 5.31 0 0 0 18 47.24V55a1 1 0 0 0 1 1h2v3c0 1.77 1 3 2.38 3h1.25C26 62 27 60.77 27 59V56h2a1 1 0 0 0 1-1V47.24A5.31 5.31 0 0 0 26.16 42.36zM24 37a2 2 0 1 1-2 2A2 2 0 0 1 24 37zm4 17H26a1 1 0 0 0-1 1v4c0 .41-.13 1-.37 1H23.38c-.25 0-.38-.59-.38-1V55a1 1 0 0 0-1-1H20V47.24C20 45.45 21.79 44 24 44s4 1.45 4 3.24zM42.16 42.36a4 4 0 1 0-4.32 0A5.31 5.31 0 0 0 34 47.24V55a1 1 0 0 0 1 1h2v3c0 1.77 1 3 2.38 3h1.25C42 62 43 60.77 43 59V56h2a1 1 0 0 0 1-1V47.24A5.31 5.31 0 0 0 42.16 42.36zM40 37a2 2 0 1 1-2 2A2 2 0 0 1 40 37zm4 17H42a1 1 0 0 0-1 1v4c0 .41-.13 1-.37 1H39.38c-.25 0-.38-.59-.38-1V55a1 1 0 0 0-1-1H36V47.24C36 45.45 37.79 44 40 44s4 1.45 4 3.24zM57.16 42.36a4 4 0 1 0-4.32 0A5.31 5.31 0 0 0 49 47.24V55a1 1 0 0 0 1 1h2v3c0 1.77 1 3 2.38 3h1.25C57 62 58 60.77 58 59V56h2a1 1 0 0 0 1-1V47.24A5.31 5.31 0 0 0 57.16 42.36zM55 37a2 2 0 1 1-2 2A2 2 0 0 1 55 37zm4 17H57a1 1 0 0 0-1 1v4c0 .41-.13 1-.37 1H54.38c-.25 0-.38-.59-.38-1V55a1 1 0 0 0-1-1H51V47.24C51 45.45 52.79 44 55 44s4 1.45 4 3.24z"/><path d="M42.71,19.41A12,12,0,1,0,21.07,9.05,2.54,2.54,0,0,0,19,11.54v1.92a2.5,2.5,0,0,0,1.69,2.39,2.41,2.41,0,0,0,.85.15h.92A2.54,2.54,0,0,0,25,13.46V11.54a2.54,2.54,0,0,0-1.74-2.4A9.92,9.92,0,0,1,32,4a10,10,0,0,1,8.91,14.53,9.09,9.09,0,0,0-3-.53H26.14A9.15,9.15,0,0,0,17,27.14V31a1,1,0,0,0,1,1H46a1,1,0,0,0,1-1V27.14A9.12,9.12,0,0,0,42.71,19.41ZM23,13.46a.54.54,0,0,1-.54.54h-.92a.54.54,0,0,1-.19,0,.52.52,0,0,1-.35-.5V11.54a.54.54,0,0,1,.54-.54h.92a.54.54,0,0,1,.54.54ZM45,30H19V27.14A7.14,7.14,0,0,1,26.14,20H37.86a7.18,7.18,0,0,1,1.92.27,3.36,3.36,0,0,1-.24.29A9.72,9.72,0,0,1,36,23.16V23a1,1,0,0,0-1-1H29a1,1,0,0,0-1,1v4a1,1,0,0,0,1,1h6a1,1,0,0,0,1-1V25.31a11.81,11.81,0,0,0,5-3.43c.22-.25.42-.51.61-.77a7.14,7.14,0,0,1,3.34,6ZM34,24v2H30V24Z"/></svg>