<svg xmlns="http://www.w3.org/2000/svg" viewBox="0 0 68 68">
<path fill="white" d="M38,47v9H30V47a3.0088,3.0088,0,0,1,3-3h2A3.0088,3.0088,0,0,1,38,47Z"/>
<path fill="white" d="M38.8,20.6H36.4a1.0029,1.0029,0,0,1-1-1V17.2a.2006.2006,0,0,0-.2-.2H32.8a.2006.2006,0,0,0-.2.2v2.4a1.0029,1.0029,0,0,1-1,1H29.2a.2006.2006,0,0,0-.2.2v2.4a.2006.2006,0,0,0,.2.2h2.4a1.0029,1.0029,0,0,1,1,1v2.4a.2006.2006,0,0,0,.2.2h2.4a.2006.2006,0,0,0,.2-.2V24.4a1.0029,1.0029,0,0,1,1-1h2.4a.2006.2006,0,0,0,.2-.2V20.8A.2006.2006,0,0,0,38.8,20.6Zm0,0H36.4a1.0029,1.0029,0,0,1-1-1V17.2a.2006.2006,0,0,0-.2-.2H32.8a.2006.2006,0,0,0-.2.2v2.4a1.0029,1.0029,0,0,1-1,1H29.2a.2006.2006,0,0,0-.2.2v2.4a.2006.2006,0,0,0,.2.2h2.4a1.0029,1.0029,0,0,1,1,1v2.4a.2006.2006,0,0,0,.2.2h2.4a.2006.2006,0,0,0,.2-.2V24.4a1.0029,1.0029,0,0,1,1-1h2.4a.2006.2006,0,0,0,.2-.2V20.8A.2006.2006,0,0,0,38.8,20.6Zm0,0H36.4a1.0029,1.0029,0,0,1-1-1V17.2a.2006.2006,0,0,0-.2-.2H32.8a.2006.2006,0,0,0-.2.2v2.4a1.0029,1.0029,0,0,1-1,1H29.2a.2006.2006,0,0,0-.2.2v2.4a.2006.2006,0,0,0,.2.2h2.4a1.0029,1.0029,0,0,1,1,1v2.4a.2006.2006,0,0,0,.2.2h2.4a.2006.2006,0,0,0,.2-.2V24.4a1.0029,1.0029,0,0,1,1-1h2.4a.2006.2006,0,0,0,.2-.2V20.8A.2006.2006,0,0,0,38.8,20.6Zm0,0H36.4a1.0029,1.0029,0,0,1-1-1V17.2a.2006.2006,0,0,0-.2-.2H32.8a.2006.2006,0,0,0-.2.2v2.4a1.0029,1.0029,0,0,1-1,1H29.2a.2006.2006,0,0,0-.2.2v2.4a.2006.2006,0,0,0,.2.2h2.4a1.0029,1.0029,0,0,1,1,1v2.4a.2006.2006,0,0,0,.2.2h2.4a.2006.2006,0,0,0,.2-.2V24.4a1.0029,1.0029,0,0,1,1-1h2.4a.2006.2006,0,0,0,.2-.2V20.8A.2006.2006,0,0,0,38.8,20.6Zm0,0H36.4a1.0029,1.0029,0,0,1-1-1V17.2a.2006.2006,0,0,0-.2-.2H32.8a.2006.2006,0,0,0-.2.2v2.4a1.0029,1.0029,0,0,1-1,1H29.2a.2006.2006,0,0,0-.2.2v2.4a.2006.2006,0,0,0,.2.2h2.4a1.0029,1.0029,0,0,1,1,1v2.4a.2006.2006,0,0,0,.2.2h2.4a.2006.2006,0,0,0,.2-.2V24.4a1.0029,1.0029,0,0,1,1-1h2.4a.2006.2006,0,0,0,.2-.2V20.8A.2006.2006,0,0,0,38.8,20.6Zm0,0H36.4a1.0029,1.0029,0,0,1-1-1V17.2a.2006.2006,0,0,0-.2-.2H32.8a.2006.2006,0,0,0-.2.2v2.4a1.0029,1.0029,0,0,1-1,1H29.2a.2006.2006,0,0,0-.2.2v2.4a.2006.2006,0,0,0,.2.2h2.4a1.0029,1.0029,0,0,1,1,1v2.4a.2006.2006,0,0,0,.2.2h2.4a.2006.2006,0,0,0,.2-.2V24.4a1.0029,1.0029,0,0,1,1-1h2.4a.2006.2006,0,0,0,.2-.2V20.8A.2006.2006,0,0,0,38.8,20.6Zm0,0H36.4a1.0029,1.0029,0,0,1-1-1V17.2a.2006.2006,0,0,0-.2-.2H32.8a.2006.2006,0,0,0-.2.2v2.4a1.0029,1.0029,0,0,1-1,1H29.2a.2006.2006,0,0,0-.2.2v2.4a.2006.2006,0,0,0,.2.2h2.4a1.0029,1.0029,0,0,1,1,1v2.4a.2006.2006,0,0,0,.2.2h2.4a.2006.2006,0,0,0,.2-.2V24.4a1.0029,1.0029,0,0,1,1-1h2.4a.2006.2006,0,0,0,.2-.2V20.8A.2006.2006,0,0,0,38.8,20.6Zm0,0H36.4a1.0029,1.0029,0,0,1-1-1V17.2a.2006.2006,0,0,0-.2-.2H32.8a.2006.2006,0,0,0-.2.2v2.4a1.0029,1.0029,0,0,1-1,1H29.2a.2006.2006,0,0,0-.2.2v2.4a.2006.2006,0,0,0,.2.2h2.4a1.0029,1.0029,0,0,1,1,1v2.4a.2006.2006,0,0,0,.2.2h2.4a.2006.2006,0,0,0,.2-.2V24.4a1.0029,1.0029,0,0,1,1-1h2.4a.2006.2006,0,0,0,.2-.2V20.8A.2006.2006,0,0,0,38.8,20.6Zm0,0H36.4a1.0029,1.0029,0,0,1-1-1V17.2a.2006.2006,0,0,0-.2-.2H32.8a.2006.2006,0,0,0-.2.2v2.4a1.0029,1.0029,0,0,1-1,1H29.2a.2006.2006,0,0,0-.2.2v2.4a.2006.2006,0,0,0,.2.2h2.4a1.0029,1.0029,0,0,1,1,1v2.4a.2006.2006,0,0,0,.2.2h2.4a.2006.2006,0,0,0,.2-.2V24.4a1.0029,1.0029,0,0,1,1-1h2.4a.2006.2006,0,0,0,.2-.2V20.8A.2006.2006,0,0,0,38.8,20.6Zm0,0H36.4a1.0029,1.0029,0,0,1-1-1V17.2a.2006.2006,0,0,0-.2-.2H32.8a.2006.2006,0,0,0-.2.2v2.4a1.0029,1.0029,0,0,1-1,1H29.2a.2006.2006,0,0,0-.2.2v2.4a.2006.2006,0,0,0,.2.2h2.4a1.0029,1.0029,0,0,1,1,1v2.4a.2006.2006,0,0,0,.2.2h2.4a.2006.2006,0,0,0,.2-.2V24.4a1.0029,1.0029,0,0,1,1-1h2.4a.2006.2006,0,0,0,.2-.2V20.8A.2006.2006,0,0,0,38.8,20.6ZM50,13a3.0088,3.0088,0,0,0-3-3H21a3.0088,3.0088,0,0,0-3,3V55a1.0029,1.0029,0,0,0,1,1h9V47a5.0018,5.0018,0,0,1,5-5h2a5.0018,5.0018,0,0,1,5,5v9h9a1.0029,1.0029,0,0,0,1-1ZM26,39H24a1,1,0,0,1,0-2h2a1,1,0,0,1,0,2Zm0-5H24a1,1,0,0,1,0-2h2a1,1,0,0,1,0,2Zm9,5H33a1,1,0,0,1,0-2h2a1,1,0,0,1,0,2Zm0-5H33a1,1,0,0,1,0-2h2a1,1,0,0,1,0,2Zm3.8-8.6H37.4v1.4A2.2065,2.2065,0,0,1,35.2,29H32.8a2.2065,2.2065,0,0,1-2.2-2.2V25.4H29.2A2.2065,2.2065,0,0,1,27,23.2V20.8a2.2065,2.2065,0,0,1,2.2-2.2h1.4V17.2A2.2065,2.2065,0,0,1,32.8,15h2.4a2.2065,2.2065,0,0,1,2.2,2.2v1.4h1.4A2.2065,2.2065,0,0,1,41,20.8v2.4A2.2065,2.2065,0,0,1,38.8,25.4ZM44,39H42a1,1,0,0,1,0-2h2a1,1,0,0,1,0,2Zm0-5H42a1,1,0,0,1,0-2h2a1,1,0,0,1,0,2ZM38.8,20.6H36.4a1.0029,1.0029,0,0,1-1-1V17.2a.2006.2006,0,0,0-.2-.2H32.8a.2006.2006,0,0,0-.2.2v2.4a1.0029,1.0029,0,0,1-1,1H29.2a.2006.2006,0,0,0-.2.2v2.4a.2006.2006,0,0,0,.2.2h2.4a1.0029,1.0029,0,0,1,1,1v2.4a.2006.2006,0,0,0,.2.2h2.4a.2006.2006,0,0,0,.2-.2V24.4a1.0029,1.0029,0,0,1,1-1h2.4a.2006.2006,0,0,0,.2-.2V20.8A.2006.2006,0,0,0,38.8,20.6Zm0,0H36.4a1.0029,1.0029,0,0,1-1-1V17.2a.2006.2006,0,0,0-.2-.2H32.8a.2006.2006,0,0,0-.2.2v2.4a1.0029,1.0029,0,0,1-1,1H29.2a.2006.2006,0,0,0-.2.2v2.4a.2006.2006,0,0,0,.2.2h2.4a1.0029,1.0029,0,0,1,1,1v2.4a.2006.2006,0,0,0,.2.2h2.4a.2006.2006,0,0,0,.2-.2V24.4a1.0029,1.0029,0,0,1,1-1h2.4a.2006.2006,0,0,0,.2-.2V20.8A.2006.2006,0,0,0,38.8,20.6Zm0,0H36.4a1.0029,1.0029,0,0,1-1-1V17.2a.2006.2006,0,0,0-.2-.2H32.8a.2006.2006,0,0,0-.2.2v2.4a1.0029,1.0029,0,0,1-1,1H29.2a.2006.2006,0,0,0-.2.2v2.4a.2006.2006,0,0,0,.2.2h2.4a1.0029,1.0029,0,0,1,1,1v2.4a.2006.2006,0,0,0,.2.2h2.4a.2006.2006,0,0,0,.2-.2V24.4a1.0029,1.0029,0,0,1,1-1h2.4a.2006.2006,0,0,0,.2-.2V20.8A.2006.2006,0,0,0,38.8,20.6Zm0,0H36.4a1.0029,1.0029,0,0,1-1-1V17.2a.2006.2006,0,0,0-.2-.2H32.8a.2006.2006,0,0,0-.2.2v2.4a1.0029,1.0029,0,0,1-1,1H29.2a.2006.2006,0,0,0-.2.2v2.4a.2006.2006,0,0,0,.2.2h2.4a1.0029,1.0029,0,0,1,1,1v2.4a.2006.2006,0,0,0,.2.2h2.4a.2006.2006,0,0,0,.2-.2V24.4a1.0029,1.0029,0,0,1,1-1h2.4a.2006.2006,0,0,0,.2-.2V20.8A.2006.2006,0,0,0,38.8,20.6Zm0,0H36.4a1.0029,1.0029,0,0,1-1-1V17.2a.2006.2006,0,0,0-.2-.2H32.8a.2006.2006,0,0,0-.2.2v2.4a1.0029,1.0029,0,0,1-1,1H29.2a.2006.2006,0,0,0-.2.2v2.4a.2006.2006,0,0,0,.2.2h2.4a1.0029,1.0029,0,0,1,1,1v2.4a.2006.2006,0,0,0,.2.2h2.4a.2006.2006,0,0,0,.2-.2V24.4a1.0029,1.0029,0,0,1,1-1h2.4a.2006.2006,0,0,0,.2-.2V20.8A.2006.2006,0,0,0,38.8,20.6Zm0,0H36.4a1.0029,1.0029,0,0,1-1-1V17.2a.2006.2006,0,0,0-.2-.2H32.8a.2006.2006,0,0,0-.2.2v2.4a1.0029,1.0029,0,0,1-1,1H29.2a.2006.2006,0,0,0-.2.2v2.4a.2006.2006,0,0,0,.2.2h2.4a1.0029,1.0029,0,0,1,1,1v2.4a.2006.2006,0,0,0,.2.2h2.4a.2006.2006,0,0,0,.2-.2V24.4a1.0029,1.0029,0,0,1,1-1h2.4a.2006.2006,0,0,0,.2-.2V20.8A.2006.2006,0,0,0,38.8,20.6Zm0,0H36.4a1.0029,1.0029,0,0,1-1-1V17.2a.2006.2006,0,0,0-.2-.2H32.8a.2006.2006,0,0,0-.2.2v2.4a1.0029,1.0029,0,0,1-1,1H29.2a.2006.2006,0,0,0-.2.2v2.4a.2006.2006,0,0,0,.2.2h2.4a1.0029,1.0029,0,0,1,1,1v2.4a.2006.2006,0,0,0,.2.2h2.4a.2006.2006,0,0,0,.2-.2V24.4a1.0029,1.0029,0,0,1,1-1h2.4a.2006.2006,0,0,0,.2-.2V20.8A.2006.2006,0,0,0,38.8,20.6Zm0,0H36.4a1.0029,1.0029,0,0,1-1-1V17.2a.2006.2006,0,0,0-.2-.2H32.8a.2006.2006,0,0,0-.2.2v2.4a1.0029,1.0029,0,0,1-1,1H29.2a.2006.2006,0,0,0-.2.2v2.4a.2006.2006,0,0,0,.2.2h2.4a1.0029,1.0029,0,0,1,1,1v2.4a.2006.2006,0,0,0,.2.2h2.4a.2006.2006,0,0,0,.2-.2V24.4a1.0029,1.0029,0,0,1,1-1h2.4a.2006.2006,0,0,0,.2-.2V20.8A.2006.2006,0,0,0,38.8,20.6Zm0,0H36.4a1.0029,1.0029,0,0,1-1-1V17.2a.2006.2006,0,0,0-.2-.2H32.8a.2006.2006,0,0,0-.2.2v2.4a1.0029,1.0029,0,0,1-1,1H29.2a.2006.2006,0,0,0-.2.2v2.4a.2006.2006,0,0,0,.2.2h2.4a1.0029,1.0029,0,0,1,1,1v2.4a.2006.2006,0,0,0,.2.2h2.4a.2006.2006,0,0,0,.2-.2V24.4a1.0029,1.0029,0,0,1,1-1h2.4a.2006.2006,0,0,0,.2-.2V20.8A.2006.2006,0,0,0,38.8,20.6Zm0,0H36.4a1.0029,1.0029,0,0,1-1-1V17.2a.2006.2006,0,0,0-.2-.2H32.8a.2006.2006,0,0,0-.2.2v2.4a1.0029,1.0029,0,0,1-1,1H29.2a.2006.2006,0,0,0-.2.2v2.4a.2006.2006,0,0,0,.2.2h2.4a1.0029,1.0029,0,0,1,1,1v2.4a.2006.2006,0,0,0,.2.2h2.4a.2006.2006,0,0,0,.2-.2V24.4a1.0029,1.0029,0,0,1,1-1h2.4a.2006.2006,0,0,0,.2-.2V20.8A.2006.2006,0,0,0,38.8,20.6Zm0,0H36.4a1.0029,1.0029,0,0,1-1-1V17.2a.2006.2006,0,0,0-.2-.2H32.8a.2006.2006,0,0,0-.2.2v2.4a1.0029,1.0029,0,0,1-1,1H29.2a.2006.2006,0,0,0-.2.2v2.4a.2006.2006,0,0,0,.2.2h2.4a1.0029,1.0029,0,0,1,1,1v2.4a.2006.2006,0,0,0,.2.2h2.4a.2006.2006,0,0,0,.2-.2V24.4a1.0029,1.0029,0,0,1,1-1h2.4a.2006.2006,0,0,0,.2-.2V20.8A.2006.2006,0,0,0,38.8,20.6Z"/>
<path fill="white" d="M38,47v9H30V47a3.0088,3.0088,0,0,1,3-3h2A3.0088,3.0088,0,0,1,38,47Z"/>
<path fill="white" d="M38.8 20.6H36.4a1.0029 1.0029 0 0 1-1-1V17.2a.2006.2006 0 0 0-.2-.2H32.8a.2006.2006 0 0 0-.2.2v2.4a1.0029 1.0029 0 0 1-1 1H29.2a.2006.2006 0 0 0-.2.2v2.4a.2006.2006 0 0 0 .2.2h2.4a1.0029 1.0029 0 0 1 1 1v2.4a.2006.2006 0 0 0 .2.2h2.4a.2006.2006 0 0 0 .2-.2V24.4a1.0029 1.0029 0 0 1 1-1h2.4a.2006.2006 0 0 0 .2-.2V20.8A.2006.2006 0 0 0 38.8 20.6zm0 0H36.4a1.0029 1.0029 0 0 1-1-1V17.2a.2006.2006 0 0 0-.2-.2H32.8a.2006.2006 0 0 0-.2.2v2.4a1.0029 1.0029 0 0 1-1 1H29.2a.2006.2006 0 0 0-.2.2v2.4a.2006.2006 0 0 0 .2.2h2.4a1.0029 1.0029 0 0 1 1 1v2.4a.2006.2006 0 0 0 .2.2h2.4a.2006.2006 0 0 0 .2-.2V24.4a1.0029 1.0029 0 0 1 1-1h2.4a.2006.2006 0 0 0 .2-.2V20.8A.2006.2006 0 0 0 38.8 20.6zm0 0H36.4a1.0029 1.0029 0 0 1-1-1V17.2a.2006.2006 0 0 0-.2-.2H32.8a.2006.2006 0 0 0-.2.2v2.4a1.0029 1.0029 0 0 1-1 1H29.2a.2006.2006 0 0 0-.2.2v2.4a.2006.2006 0 0 0 .2.2h2.4a1.0029 1.0029 0 0 1 1 1v2.4a.2006.2006 0 0 0 .2.2h2.4a.2006.2006 0 0 0 .2-.2V24.4a1.0029 1.0029 0 0 1 1-1h2.4a.2006.2006 0 0 0 .2-.2V20.8A.2006.2006 0 0 0 38.8 20.6zm0 0H36.4a1.0029 1.0029 0 0 1-1-1V17.2a.2006.2006 0 0 0-.2-.2H32.8a.2006.2006 0 0 0-.2.2v2.4a1.0029 1.0029 0 0 1-1 1H29.2a.2006.2006 0 0 0-.2.2v2.4a.2006.2006 0 0 0 .2.2h2.4a1.0029 1.0029 0 0 1 1 1v2.4a.2006.2006 0 0 0 .2.2h2.4a.2006.2006 0 0 0 .2-.2V24.4a1.0029 1.0029 0 0 1 1-1h2.4a.2006.2006 0 0 0 .2-.2V20.8A.2006.2006 0 0 0 38.8 20.6zm0 0H36.4a1.0029 1.0029 0 0 1-1-1V17.2a.2006.2006 0 0 0-.2-.2H32.8a.2006.2006 0 0 0-.2.2v2.4a1.0029 1.0029 0 0 1-1 1H29.2a.2006.2006 0 0 0-.2.2v2.4a.2006.2006 0 0 0 .2.2h2.4a1.0029 1.0029 0 0 1 1 1v2.4a.2006.2006 0 0 0 .2.2h2.4a.2006.2006 0 0 0 .2-.2V24.4a1.0029 1.0029 0 0 1 1-1h2.4a.2006.2006 0 0 0 .2-.2V20.8A.2006.2006 0 0 0 38.8 20.6zm0 0H36.4a1.0029 1.0029 0 0 1-1-1V17.2a.2006.2006 0 0 0-.2-.2H32.8a.2006.2006 0 0 0-.2.2v2.4a1.0029 1.0029 0 0 1-1 1H29.2a.2006.2006 0 0 0-.2.2v2.4a.2006.2006 0 0 0 .2.2h2.4a1.0029 1.0029 0 0 1 1 1v2.4a.2006.2006 0 0 0 .2.2h2.4a.2006.2006 0 0 0 .2-.2V24.4a1.0029 1.0029 0 0 1 1-1h2.4a.2006.2006 0 0 0 .2-.2V20.8A.2006.2006 0 0 0 38.8 20.6zm0 0H36.4a1.0029 1.0029 0 0 1-1-1V17.2a.2006.2006 0 0 0-.2-.2H32.8a.2006.2006 0 0 0-.2.2v2.4a1.0029 1.0029 0 0 1-1 1H29.2a.2006.2006 0 0 0-.2.2v2.4a.2006.2006 0 0 0 .2.2h2.4a1.0029 1.0029 0 0 1 1 1v2.4a.2006.2006 0 0 0 .2.2h2.4a.2006.2006 0 0 0 .2-.2V24.4a1.0029 1.0029 0 0 1 1-1h2.4a.2006.2006 0 0 0 .2-.2V20.8A.2006.2006 0 0 0 38.8 20.6zm0 0H36.4a1.0029 1.0029 0 0 1-1-1V17.2a.2006.2006 0 0 0-.2-.2H32.8a.2006.2006 0 0 0-.2.2v2.4a1.0029 1.0029 0 0 1-1 1H29.2a.2006.2006 0 0 0-.2.2v2.4a.2006.2006 0 0 0 .2.2h2.4a1.0029 1.0029 0 0 1 1 1v2.4a.2006.2006 0 0 0 .2.2h2.4a.2006.2006 0 0 0 .2-.2V24.4a1.0029 1.0029 0 0 1 1-1h2.4a.2006.2006 0 0 0 .2-.2V20.8A.2006.2006 0 0 0 38.8 20.6zm0 0H36.4a1.0029 1.0029 0 0 1-1-1V17.2a.2006.2006 0 0 0-.2-.2H32.8a.2006.2006 0 0 0-.2.2v2.4a1.0029 1.0029 0 0 1-1 1H29.2a.2006.2006 0 0 0-.2.2v2.4a.2006.2006 0 0 0 .2.2h2.4a1.0029 1.0029 0 0 1 1 1v2.4a.2006.2006 0 0 0 .2.2h2.4a.2006.2006 0 0 0 .2-.2V24.4a1.0029 1.0029 0 0 1 1-1h2.4a.2006.2006 0 0 0 .2-.2V20.8A.2006.2006 0 0 0 38.8 20.6zm0 0H36.4a1.0029 1.0029 0 0 1-1-1V17.2a.2006.2006 0 0 0-.2-.2H32.8a.2006.2006 0 0 0-.2.2v2.4a1.0029 1.0029 0 0 1-1 1H29.2a.2006.2006 0 0 0-.2.2v2.4a.2006.2006 0 0 0 .2.2h2.4a1.0029 1.0029 0 0 1 1 1v2.4a.2006.2006 0 0 0 .2.2h2.4a.2006.2006 0 0 0 .2-.2V24.4a1.0029 1.0029 0 0 1 1-1h2.4a.2006.2006 0 0 0 .2-.2V20.8A.2006.2006 0 0 0 38.8 20.6zM50 13a3.0088 3.0088 0 0 0-3-3H21a3.0088 3.0088 0 0 0-3 3V56H28V47a5.0018 5.0018 0 0 1 5-5h2a5.0018 5.0018 0 0 1 5 5v9H50zM26 39H24a1 1 0 0 1 0-2h2a1 1 0 0 1 0 2zm0-5H24a1 1 0 0 1 0-2h2a1 1 0 0 1 0 2zm9 5H33a1 1 0 0 1 0-2h2a1 1 0 0 1 0 2zm0-5H33a1 1 0 0 1 0-2h2a1 1 0 0 1 0 2zm3.8-8.6H37.4v1.4A2.2065 2.2065 0 0 1 35.2 29H32.8a2.2065 2.2065 0 0 1-2.2-2.2V25.4H29.2A2.2065 2.2065 0 0 1 27 23.2V20.8a2.2065 2.2065 0 0 1 2.2-2.2h1.4V17.2A2.2065 2.2065 0 0 1 32.8 15h2.4a2.2065 2.2065 0 0 1 2.2 2.2v1.4h1.4A2.2065 2.2065 0 0 1 41 20.8v2.4A2.2065 2.2065 0 0 1 38.8 25.4zM44 39H42a1 1 0 0 1 0-2h2a1 1 0 0 1 0 2zm0-5H42a1 1 0 0 1 0-2h2a1 1 0 0 1 0 2zM38.8 20.6H36.4a1.0029 1.0029 0 0 1-1-1V17.2a.2006.2006 0 0 0-.2-.2H32.8a.2006.2006 0 0 0-.2.2v2.4a1.0029 1.0029 0 0 1-1 1H29.2a.2006.2006 0 0 0-.2.2v2.4a.2006.2006 0 0 0 .2.2h2.4a1.0029 1.0029 0 0 1 1 1v2.4a.2006.2006 0 0 0 .2.2h2.4a.2006.2006 0 0 0 .2-.2V24.4a1.0029 1.0029 0 0 1 1-1h2.4a.2006.2006 0 0 0 .2-.2V20.8A.2006.2006 0 0 0 38.8 20.6zm0 0H36.4a1.0029 1.0029 0 0 1-1-1V17.2a.2006.2006 0 0 0-.2-.2H32.8a.2006.2006 0 0 0-.2.2v2.4a1.0029 1.0029 0 0 1-1 1H29.2a.2006.2006 0 0 0-.2.2v2.4a.2006.2006 0 0 0 .2.2h2.4a1.0029 1.0029 0 0 1 1 1v2.4a.2006.2006 0 0 0 .2.2h2.4a.2006.2006 0 0 0 .2-.2V24.4a1.0029 1.0029 0 0 1 1-1h2.4a.2006.2006 0 0 0 .2-.2V20.8A.2006.2006 0 0 0 38.8 20.6zm0 0H36.4a1.0029 1.0029 0 0 1-1-1V17.2a.2006.2006 0 0 0-.2-.2H32.8a.2006.2006 0 0 0-.2.2v2.4a1.0029 1.0029 0 0 1-1 1H29.2a.2006.2006 0 0 0-.2.2v2.4a.2006.2006 0 0 0 .2.2h2.4a1.0029 1.0029 0 0 1 1 1v2.4a.2006.2006 0 0 0 .2.2h2.4a.2006.2006 0 0 0 .2-.2V24.4a1.0029 1.0029 0 0 1 1-1h2.4a.2006.2006 0 0 0 .2-.2V20.8A.2006.2006 0 0 0 38.8 20.6zm0 0H36.4a1.0029 1.0029 0 0 1-1-1V17.2a.2006.2006 0 0 0-.2-.2H32.8a.2006.2006 0 0 0-.2.2v2.4a1.0029 1.0029 0 0 1-1 1H29.2a.2006.2006 0 0 0-.2.2v2.4a.2006.2006 0 0 0 .2.2h2.4a1.0029 1.0029 0 0 1 1 1v2.4a.2006.2006 0 0 0 .2.2h2.4a.2006.2006 0 0 0 .2-.2V24.4a1.0029 1.0029 0 0 1 1-1h2.4a.2006.2006 0 0 0 .2-.2V20.8A.2006.2006 0 0 0 38.8 20.6zm0 0H36.4a1.0029 1.0029 0 0 1-1-1V17.2a.2006.2006 0 0 0-.2-.2H32.8a.2006.2006 0 0 0-.2.2v2.4a1.0029 1.0029 0 0 1-1 1H29.2a.2006.2006 0 0 0-.2.2v2.4a.2006.2006 0 0 0 .2.2h2.4a1.0029 1.0029 0 0 1 1 1v2.4a.2006.2006 0 0 0 .2.2h2.4a.2006.2006 0 0 0 .2-.2V24.4a1.0029 1.0029 0 0 1 1-1h2.4a.2006.2006 0 0 0 .2-.2V20.8A.2006.2006 0 0 0 38.8 20.6zm0 0H36.4a1.0029 1.0029 0 0 1-1-1V17.2a.2006.2006 0 0 0-.2-.2H32.8a.2006.2006 0 0 0-.2.2v2.4a1.0029 1.0029 0 0 1-1 1H29.2a.2006.2006 0 0 0-.2.2v2.4a.2006.2006 0 0 0 .2.2h2.4a1.0029 1.0029 0 0 1 1 1v2.4a.2006.2006 0 0 0 .2.2h2.4a.2006.2006 0 0 0 .2-.2V24.4a1.0029 1.0029 0 0 1 1-1h2.4a.2006.2006 0 0 0 .2-.2V20.8A.2006.2006 0 0 0 38.8 20.6zm0 0H36.4a1.0029 1.0029 0 0 1-1-1V17.2a.2006.2006 0 0 0-.2-.2H32.8a.2006.2006 0 0 0-.2.2v2.4a1.0029 1.0029 0 0 1-1 1H29.2a.2006.2006 0 0 0-.2.2v2.4a.2006.2006 0 0 0 .2.2h2.4a1.0029 1.0029 0 0 1 1 1v2.4a.2006.2006 0 0 0 .2.2h2.4a.2006.2006 0 0 0 .2-.2V24.4a1.0029 1.0029 0 0 1 1-1h2.4a.2006.2006 0 0 0 .2-.2V20.8A.2006.2006 0 0 0 38.8 20.6zm0 0H36.4a1.0029 1.0029 0 0 1-1-1V17.2a.2006.2006 0 0 0-.2-.2H32.8a.2006.2006 0 0 0-.2.2v2.4a1.0029 1.0029 0 0 1-1 1H29.2a.2006.2006 0 0 0-.2.2v2.4a.2006.2006 0 0 0 .2.2h2.4a1.0029 1.0029 0 0 1 1 1v2.4a.2006.2006 0 0 0 .2.2h2.4a.2006.2006 0 0 0 .2-.2V24.4a1.0029 1.0029 0 0 1 1-1h2.4a.2006.2006 0 0 0 .2-.2V20.8A.2006.2006 0 0 0 38.8 20.6zm0 0H36.4a1.0029 1.0029 0 0 1-1-1V17.2a.2006.2006 0 0 0-.2-.2H32.8a.2006.2006 0 0 0-.2.2v2.4a1.0029 1.0029 0 0 1-1 1H29.2a.2006.2006 0 0 0-.2.2v2.4a.2006.2006 0 0 0 .2.2h2.4a1.0029 1.0029 0 0 1 1 1v2.4a.2006.2006 0 0 0 .2.2h2.4a.2006.2006 0 0 0 .2-.2V24.4a1.0029 1.0029 0 0 1 1-1h2.4a.2006.2006 0 0 0 .2-.2V20.8A.2006.2006 0 0 0 38.8 20.6zm0 0H36.4a1.0029 1.0029 0 0 1-1-1V17.2a.2006.2006 0 0 0-.2-.2H32.8a.2006.2006 0 0 0-.2.2v2.4a1.0029 1.0029 0 0 1-1 1H29.2a.2006.2006 0 0 0-.2.2v2.4a.2006.2006 0 0 0 .2.2h2.4a1.0029 1.0029 0 0 1 1 1v2.4a.2006.2006 0 0 0 .2.2h2.4a.2006.2006 0 0 0 .2-.2V24.4a1.0029 1.0029 0 0 1 1-1h2.4a.2006.2006 0 0 0 .2-.2V20.8A.2006.2006 0 0 0 38.8 20.6zm0 0H36.4a1.0029 1.0029 0 0 1-1-1V17.2a.2006.2006 0 0 0-.2-.2H32.8a.2006.2006 0 0 0-.2.2v2.4a1.0029 1.0029 0 0 1-1 1H29.2a.2006.2006 0 0 0-.2.2v2.4a.2006.2006 0 0 0 .2.2h2.4a1.0029 1.0029 0 0 1 1 1v2.4a.2006.2006 0 0 0 .2.2h2.4a.2006.2006 0 0 0 .2-.2V24.4a1.0029 1.0029 0 0 1 1-1h2.4a.2006.2006 0 0 0 .2-.2V20.8A.2006.2006 0 0 0 38.8 20.6zM16 56V22H11a3.0088 3.0088 0 0 0-3 3V55a1.0029 1.0029 0 0 0 1 1zm-2-8a1.0029 1.0029 0 0 1-1 1H11a1 1 0 0 1 0-2h2A1.0029 1.0029 0 0 1 14 48zm0-5a1.0029 1.0029 0 0 1-1 1H11a1 1 0 0 1 0-2h2A1.0029 1.0029 0 0 1 14 43zm-1-4H11a1 1 0 0 1 0-2h2a1 1 0 0 1 0 2zm0-5H11a1 1 0 0 1 0-2h2a1 1 0 0 1 0 2zm0-5H11a1 1 0 0 1 0-2h2a1 1 0 0 1 0 2zM57 22H52V56h7a1.0029 1.0029 0 0 0 1-1V25A3.0088 3.0088 0 0 0 57 22zm0 27H55a1 1 0 0 1 0-2h2a1 1 0 0 1 0 2zm0-5H55a1 1 0 0 1 0-2h2a1 1 0 0 1 0 2zm0-5H55a1 1 0 0 1 0-2h2a1 1 0 0 1 0 2zm0-5H55a1 1 0 0 1 0-2h2a1 1 0 0 1 0 2zm0-5H55a1 1 0 0 1 0-2h2a1 1 0 0 1 0 2z"/></svg>