<svg xmlns="http://www.w3.org/2000/svg" width="128" height="128" stroke="rgba(244,244,244,0.2)" fill="rgba(244,244,244,0.2)" enable-background="new 0 0 128 128" viewBox="0 0 128 128"><path stroke-width="2" d="M110.1,54.8L68.8,11.8c-1.3-1.3-3-2.1-4.8-2.1s-3.6,0.7-4.8,2.1L17.9,54.8c-1.5,1.6-1.9,3.7-1.1,5.7c0.8,2,2.7,3.2,4.9,3.2
		H32v37.8c0,4.5,3.7,8.2,8.2,8.2h47.6c4.5,0,8.2-3.7,8.2-8.2V63.7h10.3c2.2,0,4-1.2,4.9-3.2C112,58.5,111.6,56.3,110.1,54.8z
		 M72,105.7H56V89.3c0-1.4,1.1-2.6,2.6-2.6h10.9c1.4,0,2.6,1.1,2.6,2.6V105.7z M92,101.5c0,2.3-1.9,4.2-4.2,4.2H76V89.3
		c0-3.6-2.9-6.6-6.6-6.6H58.6c-3.6,0-6.6,2.9-6.6,6.6v16.4H40.2c-2.3,0-4.2-1.9-4.2-4.2V63.7h11.1c1,8.4,8.2,15,16.9,15
		s15.9-6.6,16.9-15H92V101.5z M51,61.7c0-7.2,5.8-13,13-13s13,5.8,13,13s-5.8,13-13,13S51,68.9,51,61.7z M107.5,58.9
		c-0.1,0.2-0.4,0.8-1.2,0.8H80.9c-1-8.4-8.2-15-16.9-15s-15.9,6.6-16.9,15H21.7c-0.8,0-1.1-0.5-1.2-0.8c-0.1-0.2-0.3-0.8,0.3-1.4
		L62,14.6c1-1.1,2.9-1.1,3.9,0l41.3,42.9C107.7,58.1,107.6,58.7,107.5,58.9z"/><path stroke-width="2" d="M57,63.7h5v5c0,1.1,0.9,2,2,2s2-0.9,2-2v-5h5c1.1,0,2-0.9,2-2s-0.9-2-2-2h-5v-5c0-1.1-0.9-2-2-2s-2,0.9-2,2v5h-5
		c-1.1,0-2,0.9-2,2S55.9,63.7,57,63.7z"/></svg>