<svg xmlns="http://www.w3.org/2000/svg" enable-background="new 0 0 64 64" viewBox="0 0 64 64"><rect width="61.64" height="3.4" x="1.18" y="12.16" fill="#365470"/><rect width="64" height="3.4" y="56.58" fill="#365470"/><rect width="55.64" height="44.42" x="4.18" y="15.56" fill="#e1e2e0"/><rect width="6.03" height="6.03" x="7.79" y="18.57" fill="#59cbef"/><rect width="6.03" height="6.03" x="7.79" y="29.36" fill="#59cbef"/><rect width="6.03" height="6.03" x="7.79" y="40.15" fill="#59cbef"/><rect width="6.03" height="6.03" x="7.79" y="50.94" fill="#59cbef"/><rect width="6.03" height="6.03" x="50.19" y="18.57" fill="#59cbef"/><rect width="6.03" height="6.03" x="50.19" y="29.36" fill="#59cbef"/><rect width="6.03" height="6.03" x="50.19" y="40.15" fill="#59cbef"/><rect width="6.03" height="6.03" x="50.19" y="50.94" fill="#59cbef"/><rect width="29.17" height="52.56" x="17.42" y="7.42" fill="#f9f9f9"/><rect width="35.07" height="3.4" x="14.47" y="4.02" fill="#365470"/><rect width="24.67" height="3.1" x="19.66" y="21.3" fill="#59cbef"/><rect width="24.67" height="3.1" x="19.66" y="27.19" fill="#59cbef"/><rect width="24.67" height="3.1" x="19.66" y="33.08" fill="#59cbef"/><rect width="24.67" height="3.1" x="19.66" y="38.97" fill="#59cbef"/><g><rect width="2.85" height="9.16" x="30.58" y="9.78" fill="#da4765"/><rect width="2.85" height="9.16" x="30.58" y="9.78" fill="#da4765" transform="rotate(-90 32 14.361)"/></g><rect width="11.94" height="15.19" x="26.03" y="44.79" fill="#d3d3d3"/></svg>