<svg xmlns="http://www.w3.org/2000/svg" width="20" height="28" viewBox="0 0 5.292 7.408"><path d="m 10,128 a 1.6181544,1.6181544 0 0 0 -1.4472656,0.89453 l -0.1054688,0.21094 A 1.6181544,1.6181544 0 0 1 7,130 H 4 a 1.0000693,1.0000693 0 0 0 -1,1 v 24 a 1.0000693,1.0000693 0 0 0 1,1 h 18 a 1.0000693,1.0000693 0 0 0 1,-1 v -24 a 1.0000693,1.0000693 0 0 0 -1,-1 h -3 a 1.6181544,1.6181544 0 0 1 -1.447266,-0.89453 l -0.105468,-0.21094 A 1.6181544,1.6181544 0 0 0 16,128 Z m -4.0039062,3.50195 H 20 c 0.82218,0 1.498027,0.67589 1.498047,1.49805 v 19.99805 c -2e-5,0.8222 -0.675867,1.49804 -1.498047,1.49804 H 5.9960938 c -0.82218,0 -1.4980369,-0.67584 -1.4980469,-1.49804 V 133 c 10e-6,-0.82216 0.6758669,-1.49805 1.4980469,-1.49805 z M 6,132 a 0.99943926,0.99943926 0 0 0 -1,1 v 20.00195 A 0.99943926,0.99943926 0 0 0 6,154 h 14 a 0.99943926,0.99943926 0 0 0 1,-0.99805 V 133 a 0.99943926,0.99943926 0 0 0 -1,-1 z m 0.9980469,1.50391 H 19.001953 a 0.49999934,0.49999934 0 0 1 0.501953,0.49414 A 0.49999934,0.49999934 0 0 1 19.001953,134.5 H 6.9980469 a 0.49999934,0.49999934 0 0 1 -0.4941407,-0.50195 0.49999934,0.49999934 0 0 1 0.4941407,-0.49414 z m -0.00781,1.99218 a 0.49999934,0.49999934 0 0 1 0.00781,0 H 17 a 0.49999934,0.49999934 0 0 1 0.501953,0.50196 A 0.49999934,0.49999934 0 0 1 17,136.5 H 6.9980469 a 0.49999934,0.49999934 0 0 1 -0.4941407,-0.50195 0.49999934,0.49999934 0 0 1 0.4863282,-0.50196 z m 0,2.00196 a 0.49999934,0.49999934 0 0 1 0.00781,0 H 19.001953 A 0.49999934,0.49999934 0 0 1 19.503906,138 0.49999934,0.49999934 0 0 1 19.001953,138.50195 H 6.9980469 A 0.49999934,0.49999934 0 0 1 6.5039062,138 0.49999934,0.49999934 0 0 1 6.9902344,137.49805 Z m 0,2 a 0.49999934,0.49999934 0 0 1 0.00781,0 H 17 A 0.49999934,0.49999934 0 0 1 17.501953,140 0.49999934,0.49999934 0 0 1 17,140.50195 H 6.9980469 A 0.49999934,0.49999934 0 0 1 6.5039062,140 0.49999934,0.49999934 0 0 1 6.9902344,139.49805 Z m 0,2 a 0.49999934,0.49999934 0 0 1 0.00781,0 H 19.001953 A 0.49999934,0.49999934 0 0 1 19.503906,142 0.49999934,0.49999934 0 0 1 19.001953,142.50195 H 6.9980469 A 0.49999934,0.49999934 0 0 1 6.5039062,142 0.49999934,0.49999934 0 0 1 6.9902344,141.49805 Z m 0,2 a 0.49999934,0.49999934 0 0 1 0.00781,0 H 17 A 0.49999934,0.49999934 0 0 1 17.501953,144 0.49999934,0.49999934 0 0 1 17,144.50195 H 6.9980469 A 0.49999934,0.49999934 0 0 1 6.5039062,144 0.49999934,0.49999934 0 0 1 6.9902344,143.49805 Z m 0,2.00195 a 0.49999934,0.49999934 0 0 1 0.00781,0 H 19.001953 a 0.49999934,0.49999934 0 0 1 0.501953,0.50195 0.49999934,0.49999934 0 0 1 -0.501953,0.50196 H 6.9980469 A 0.49999934,0.49999934 0 0 1 6.5039062,146.00195 0.49999934,0.49999934 0 0 1 6.9902344,145.5 Z m 0,2 a 0.49999934,0.49999934 0 0 1 0.00781,0 H 13 a 0.49999934,0.49999934 0 0 1 0.501953,0.50195 A 0.49999934,0.49999934 0 0 1 13,148.50391 H 6.9980469 A 0.49999934,0.49999934 0 0 1 6.5039062,148.00195 0.49999934,0.49999934 0 0 1 6.9902344,147.5 Z M 17,147.5 a 2.4999999,2.4999999 0 0 1 2.5,2.5 2.4999999,2.4999999 0 0 1 -2.5,2.5 2.4999999,2.4999999 0 0 1 -2.5,-2.5 2.4999999,2.4999999 0 0 1 0.851562,-1.87891 2.4999999,2.4999999 0 0 1 0.103516,-0.0859 A 2.4999999,2.4999999 0 0 1 17,147.5 Z m 0,1.00391 a 0.49999935,0.49999935 0 0 0 -0.501953,0.49414 V 149.5 h -0.501953 a 0.49999935,0.49999935 0 0 0 -0.494141,0.50195 0.49999935,0.49999935 0 0 0 0.494141,0.49414 h 0.501953 v 0.50196 A 0.49999935,0.49999935 0 0 0 17,151.5 a 0.49999935,0.49999935 0 0 0 0.501953,-0.50195 v -0.50196 h 0.496094 a 0.49999936,0.49999936 0 0 0 0.06055,-0.002 0.49999935,0.49999935 0 0 0 0.441406,-0.49219 0.49999936,0.49999936 0 0 0 -0.002,-0.0586 0.49999935,0.49999935 0 0 0 -0.5,-0.44336 h -0.496094 v -0.50195 A 0.49999935,0.49999935 0 0 0 17,148.50391 Z" transform="translate(-.794 -33.867) scale(.26458)"/></svg>