<svg xmlns="http://www.w3.org/2000/svg" fill="white" width="48" height="48" enable-background="new 0 0 48 48" viewBox="0 0 48 48"><path d="M24.385,43.712c-1.589,0-3.067-0.605-4.174-1.713l-1.414-1.414l7.071-7.07l-4.243-4.243l9.871-9.871
		c0.795-0.794,2.076-0.808,2.856-0.029l7.071,7.072c0.382,0.382,0.587,0.895,0.576,1.443c-0.011,0.532-0.225,1.034-0.604,1.413
		L28.852,41.844c-1.168,1.169-2.706,1.831-4.331,1.866C24.476,43.711,24.431,43.712,24.385,43.712z M21.625,40.585
		c0.75,0.75,1.753,1.136,2.853,1.126c1.106-0.024,2.157-0.479,2.959-1.281l12.544-12.544l-7.042-7.1l-8.486,8.485l2.829,2.829
		c0.377,0.376,0.585,0.879,0.585,1.414c0,0.534-0.208,1.036-0.584,1.414L21.625,40.585z"/><path d="M13.14 46.997c-1.28 0-2.561-.487-3.535-1.462l-.707-.707c-.377-.377-.585-.879-.585-1.414s.208-1.038.585-1.415l14.141-14.142 4.243 4.243c.377.376.585.879.585 1.414 0 .534-.208 1.036-.584 1.414L16.675 45.535C15.701 46.51 14.42 46.997 13.14 46.997zM10.312 43.414l.707.707c1.169 1.17 3.072 1.169 4.243 0l10.606-10.606-2.829-2.829L10.312 43.414zM12 15h-2c-1.103 0-2-.897-2-2V3c0-1.103.897-2 2-2h2c1.103 0 2 .897 2 2v10C14 14.103 13.103 15 12 15zM10 3v10h2.001L12 3H10z"/><path d="M11,22c-0.552,0-1-0.447-1-1v-7c0-0.553,0.448-1,1-1s1,0.447,1,1v7C12,21.553,11.552,22,11,22z"/><path d="M13.879,33H8.121c-0.73,0-1.399-0.347-1.79-0.928c-0.363-0.54-0.432-1.193-0.188-1.791L11,18.348l4.858,11.934
		c0.244,0.598,0.175,1.251-0.188,1.791C15.279,32.653,14.61,33,13.879,33z M8.029,30.992C8.05,30.992,8.081,31,8.121,31h5.759
		c0.082,0,0.123-0.032,0.131-0.044l-3.006-7.314l-2.994,7.354C8.016,30.993,8.022,30.992,8.029,30.992z"/><rect width="48" height="48" fill="none"/></svg>