<svg xmlns="http://www.w3.org/2000/svg" fill="white" enable-background="new 0 0 50 50" viewBox="0 0 50 50"><path d="M45.3264,17.589c-0.8991,1.2916-1.9256,2.1885-3.4474,1.8372c-3.3442-0.772-14.8881,6.5212-16.2237,7.6471
		c-1.4119,1.192-0.1859,2.8442-0.1859,2.8442c-1.022,2.8282,1.0901,2.452,1.0901,2.452c-1.0901,3.5082,3.7325,1.6136,3.7325,1.6136
		c-0.8022,3.5399,7.8798,0.2833,12.8338-1.1558C48.0776,31.3883,49,27.4722,49,27.4722V13.9267
		C49,13.9267,46.8425,15.4089,45.3264,17.589z"/><path d="M29.4294 35.2871c-2.17.55-4.07-.0099-4.03-2.08-.36-.15-.64-.37-.82-.65-.312 1.8718-2.1624 2.0793-4 1.64-.6813 1.3621-2.3926 1.3969-3.91 1.19-.2897 3.0389-.5502 5.9321-.69 13.61h14.19c-.27-3.16.86-7.97.86-7.97l1.21-4.45h-.13C30.9993 36.5772 29.8694 36.2971 29.4294 35.2871zM15.2593 19.4472c1.7686.8578 9.3206 4.8972 10.32 6.43 1.73-1.21 6.39-4.13 10.46-5.95.23-1.6.41-3.22.46-4.6.05-1.33-.0699-2.78-.74-3.68-.35-.48-1.11-.27-1.22.3-.34 1.8-1.05 3.73-2.06 5.22.13-.6.94-3.45 1.54-5.53.31-1.06.31-2.22-.15-3.23-.19-.42-.45-.79-.76-1.08-.58-.53-1.53-.13-1.65.65-.25 1.52-.71 3.09-1.42 4.3701.69-3.82.84-4.8101.97-5.78.13-.94-.33-1.92-1.2-2.29-.03-.01-.05-.02-.08-.03-.83-.32-1.76.25-1.91 1.13-.21 1.23-.55 2.44-1.03 3.28.1-1.17.2-2.97.46-4.86.1201-.84-.5-1.63-1.35-1.68-.02 0-.03 0-.03 0-3.73-.21-2.75 7.63-2.75 7.63-.03 1.23-.73 1.17-1.21 1.06s.25-4.12.25-4.12c.73-5.66-3.33-5.68-3.33-5.68-4.92-.25-3.99 10.41-3.99 10.41C14.6794 14.0172 15.0093 17.3772 15.2593 19.4472zM34.5093 13.3772c0-1.04 1.58-1.04 1.58 0v.59c0 .56-.68.59-1.22.45C34.3594 14.2772 34.5494 13.6272 34.5093 13.3772zM31.8494 8.8772c0-.44.36-.79.79-.79s.79.35.79.79v.58c0 .22-.15.42-.36.48-.27.07-.56.05-.86-.03C31.6993 9.7672 31.8893 9.1172 31.8494 8.8772zM28.6494 5.7871c0-.4399.35-.79.79-.79-.1-.05.78.02.78.79v.58c0 .78-1.57.67-1.57-.03V5.7871zM24.7394 3.6071c0-.44.35-.79.78-.79 1.12 0 .71 1.51.79 1.94-.47.28-1.0099.24-1.5699 0V3.6071zM17.1694 3.2472c1.04-1.13 3.15-.75 3.68.54.38.9301.1 2.54-.97 3.32-.88.64-2.55.52-3.16-.43C16.0593 5.6671 16.4094 4.0672 17.1694 3.2472z"/><path d="M19.708,32.8881c0,0,4.8226,1.8946,3.7325-1.6136c0,0,2.1122,0.3762,1.0901-2.452c0,0,1.226-1.6522-0.1859-2.8442
		c-1.3356-1.1259-12.8795-8.4191-16.2237-7.6472c-0.696,0.1607-1.4288,0.0721-2.0137-0.3379
		c-0.4355-0.3053-0.9299-0.7755-1.4337-1.4993C3.1575,14.3139,1,12.8318,1,12.8318v13.5455c0,0,0.9224,3.9161,5.8741,5.3552
		C11.8282,33.1714,20.5103,36.4281,19.708,32.8881z"/></svg>