<svg xmlns="http://www.w3.org/2000/svg" enable-background="new 0 0 64 64" viewBox="0 0 64 64"><path fill="#4b6572" d="M37.2,48.9c-0.5,0.9-0.9,2-1.1,3.1L32,38.5L27.9,52c-0.2-1.1-0.6-2.2-1.1-3.1l3.5-11.5
			c0.5,0.4,1.1,0.6,1.7,0.6c0.6,0,1.2-0.2,1.7-0.6L37.2,48.9z"/><path fill="#d55947" d="M50.1 53.2c-.5-2.3-1.8-4.4-3.4-5.8-1.7-1.5-3.7-2-5.6-1.6-1.6.4-3 1.5-3.9 3-.5.9-.9 2-1.1 3.1-.2 1.4-.2 2.9.2 4.5.5 2.4 1.8 4.4 3.4 5.8C41 63.4 42.5 64 44 64c.4 0 .9 0 1.3-.1 1.9-.4 3.4-1.8 4.3-3.9C50.5 58 50.7 55.6 50.1 53.2zM47.8 59.2c-.6 1.5-1.7 2.5-3 2.8-1.3.3-2.7-.1-3.9-1.2-1.3-1.1-2.3-2.8-2.8-4.7-.9-3.9.6-7.6 3.4-8.3.3-.1.5-.1.8-.1 1 0 2.1.4 3.1 1.3 1.3 1.1 2.3 2.8 2.8 4.8C48.6 55.6 48.5 57.6 47.8 59.2zM27.9 52c-.2-1.1-.6-2.2-1.1-3.1-.9-1.5-2.2-2.6-3.9-3C21 45.4 19 46 17.3 47.5c-1.6 1.4-2.8 3.4-3.4 5.8-.6 2.4-.4 4.7.5 6.7.9 2.1 2.4 3.5 4.3 3.9C19.1 64 19.6 64 20 64c1.5 0 3-.6 4.3-1.7 1.6-1.4 2.8-3.4 3.4-5.8C28.1 54.9 28.1 53.4 27.9 52zM25.8 56c-.5 1.9-1.4 3.6-2.8 4.7-1.2 1-2.6 1.5-3.9 1.2-1.3-.3-2.3-1.3-3-2.8-.4-1-.6-2.1-.6-3.2 0-.7.1-1.5.3-2.3.5-1.9 1.4-3.6 2.8-4.8 1-.8 2-1.3 3.1-1.3.3 0 .6 0 .8.1C25.2 48.4 26.7 52.1 25.8 56z"/><path fill="#445c6c" d="M35.3,33.3L35.3,33.3l-0.9,0.2c-0.5-0.7-1.4-1.2-2.4-1.2s-1.8,0.5-2.4,1.2c-0.2,0.3-0.4,0.7-0.5,1.1l-0.3-1.3
		l0-0.2L22.3,7.5L26.7,0L32,20.6l3.2,12.5L35.3,33.3z"/><path fill="#445c6c" d="M41.7,7.5l-6.5,25.5l0,0.2l-0.3,1.3c-0.1-0.4-0.2-0.8-0.5-1.1c-0.5-0.7-1.4-1.2-2.4-1.2s-1.8,0.5-2.4,1.2
		l-0.8-0.2l-0.1,0l0-0.2L32,20.6L37.3,0L41.7,7.5z"/><path fill="#dce0e0" d="M34.9,35.1c0,0.9-0.5,1.8-1.1,2.3C33.2,37.8,32.6,38,32,38c-0.6,0-1.2-0.2-1.7-0.6c-0.7-0.5-1.1-1.4-1.1-2.3
		c0-0.2,0-0.4,0.1-0.5c0.1-0.4,0.2-0.8,0.5-1.1c0.5-0.7,1.4-1.2,2.4-1.2s1.8,0.5,2.4,1.2c0.2,0.3,0.4,0.7,0.5,1.1
		C34.8,34.8,34.9,34.9,34.9,35.1z"/></svg>