<svg xmlns="http://www.w3.org/2000/svg" enable-background="new 0 0 64 64" viewBox="0 0 64 64"><path fill="#445c6c" d="M44,50.6H20v-3.9c0-2.5,2-4.5,4.5-4.5h15c2.5,0,4.5,2,4.5,4.5V50.6z"/><path fill="#445c6c" d="M24.4,42.3l4.5-7.8l-1.4-30C27.5,2,29.5,0,32,0c1.2,0,2.4,0.5,3.2,1.3c0.8,0.8,1.3,1.9,1.3,3.2l-1.4,30
		l4.5,7.8H24.4z"/><polygon fill="#798d9b" points="19.8 64 19.3 64 20.8 50.6 21.2 50.6"/><polygon fill="#798d9b" points="20.6 64 20.1 64 21.5 50.6 22 50.6"/><polygon fill="#798d9b" points="21.5 64 21 64 22.3 50.6 22.7 50.6"/><polygon fill="#798d9b" points="22.4 64 21.9 64 23.1 50.6 23.5 50.6"/><polygon fill="#798d9b" points="23.2 64 22.7 64 23.8 50.6 24.3 50.6"/><polygon fill="#798d9b" points="24.1 64 23.6 64 24.6 50.6 25 50.6"/><polygon fill="#798d9b" points="24.9 64 24.4 64 25.3 50.6 25.8 50.6"/><polygon fill="#798d9b" points="25.8 64 25.3 64 26.1 50.6 26.5 50.6"/><polygon fill="#798d9b" points="26.7 64 26.2 64 26.8 50.6 27.3 50.6"/><polygon fill="#798d9b" points="27.5 64 27 64 27.6 50.6 28 50.6"/><polygon fill="#798d9b" points="28.4 64 27.9 64 28.4 50.6 28.8 50.6"/><polygon fill="#798d9b" points="29.2 64 28.7 64 29.1 50.6 29.6 50.6"/><polygon fill="#798d9b" points="30.1 64 29.6 64 29.9 50.6 30.3 50.6"/><polygon fill="#798d9b" points="31 64 30.5 64 30.6 50.6 31.1 50.6"/><polygon fill="#798d9b" points="31.8 64 31.3 64 31.4 50.6 31.8 50.6"/><polygon fill="#798d9b" points="32.7 64 32.2 64 32.2 50.6 32.6 50.6"/><polygon fill="#798d9b" points="33.5 64 33 64 32.9 50.6 33.4 50.6"/><polygon fill="#798d9b" points="34.4 64 33.9 64 33.7 50.6 34.1 50.6"/><polygon fill="#798d9b" points="35.3 64 34.8 64 34.4 50.6 34.9 50.6"/><polygon fill="#798d9b" points="36.1 64 35.6 64 35.2 50.6 35.6 50.6"/><polygon fill="#798d9b" points="37 64 36.5 64 36 50.6 36.4 50.6"/><polygon fill="#798d9b" points="37.8 64 37.3 64 36.7 50.6 37.2 50.6"/><polygon fill="#798d9b" points="38.7 64 38.2 64 37.5 50.6 37.9 50.6"/><polygon fill="#798d9b" points="39.6 64 39.1 64 38.2 50.6 38.7 50.6"/><polygon fill="#798d9b" points="40.4 64 39.9 64 39 50.6 39.4 50.6"/><polygon fill="#798d9b" points="41.3 64 40.8 64 39.7 50.6 40.2 50.6"/><polygon fill="#798d9b" points="42.1 64 41.6 64 40.5 50.6 40.9 50.6"/><polygon fill="#798d9b" points="43 64 42.5 64 41.3 50.6 41.7 50.6"/><polygon fill="#798d9b" points="43.9 64 43.4 64 42 50.6 42.5 50.6"/><polygon fill="#798d9b" points="44.7 64 44.2 64 42.8 50.6 43.2 50.6"/><line x1="32" x2="32" y1="6.1" y2="26.1" fill="none" stroke="#778c99" stroke-linecap="round" stroke-linejoin="round" stroke-miterlimit="10"/><line x1="22.6" x2="41.4" y1="46.5" y2="46.5" fill="none" stroke="#778c99" stroke-linecap="round" stroke-linejoin="round" stroke-miterlimit="10"/></svg>