<svg xmlns="http://www.w3.org/2000/svg" enable-background="new 0 0 64 64" viewBox="0 0 64 64"><path fill="#f2786b" d="M46.1,61.6C45.9,63,44.8,64,43.4,64H32l-11.4,0c-1.4,0-2.6-1-2.8-2.4c-1.2-8.5-1.2-17.1,0-25.6
		c0.2-1.4,1.4-2.4,2.8-2.4l11.4,0v0h11.4c1.4,0,2.6,1,2.8,2.4C47.4,44.5,47.4,53.1,46.1,61.6z"/><path fill="#f7d394" d="M36.9,51.6c-0.1,1.3-1.2,2.3-2.6,2.3H32l-2.4,0c-1.3,0-2.4-1-2.5-2.3c-0.2-1.9-0.2-3.7,0-5.6
		c0.1-1.3,1.2-2.3,2.6-2.3l2.4,0v0h2.4c1.3,0,2.4,1,2.6,2.3C37.1,47.9,37.1,49.7,36.9,51.6z"/><polygon fill="#dce0e0" points="22.2 33.6 20.4 33.6 12.2 0 15.3 0"/><polygon fill="#dce0e0" points="24.1 33.6 22.3 33.6 15.5 0 18.6 0"/><polygon fill="#dce0e0" points="26.1 33.6 24.3 33.6 18.8 0 21.9 0"/><polygon fill="#dce0e0" points="28 33.6 26.2 33.6 22.2 0 25.3 0"/><polygon fill="#dce0e0" points="30 33.6 28.2 33.6 25.5 0 28.6 0"/><polygon fill="#dce0e0" points="31.9 33.6 30.1 33.6 28.8 0 31.9 0"/><polygon fill="#dce0e0" points="33.9 33.6 32.1 33.6 32.1 0 35.2 0"/><polygon fill="#dce0e0" points="35.8 33.6 34 33.6 35.4 0 38.5 0"/><polygon fill="#dce0e0" points="37.8 33.6 36 33.6 38.7 0 41.8 0"/><polygon fill="#dce0e0" points="39.7 33.6 37.9 33.6 42.1 0 45.2 0"/><polygon fill="#dce0e0" points="41.7 33.6 39.9 33.6 45.4 0 48.5 0"/><polygon fill="#dce0e0" points="43.6 33.6 41.8 33.6 48.7 0 51.8 0"/></svg>