<svg xmlns="http://www.w3.org/2000/svg" enable-background="new 0 0 512 512" viewBox="0 0 512 512"><path fill="white" d="M386.3,166H147.7c4.6,5,7.3,12.1,7.3,19.7v156.3v40v20v40v42c0,9.9,8.1,18.1,18,18.1h215
			c9.9,0,18-8.2,18-18.1v-42v-40v-20v-40V185.7C406,174.8,397.1,166,386.3,166z M396,442H165v-40h231V442z M396,382H165v-40h231V382
			z"/><path fill="white" d="M488.5,147.1L271,73.1v-1.5c13.6-5.9,22.5-19.3,22.5-34.4c0-20.5-16.8-37.2-37.5-37.2
			s-37.5,17-37.5,37.9c0,2.8,2.2,5,5,5h20c2.8,0,5-2.3,5-5c0-4.2,3.4-7.8,7.5-7.8c4.2,0,7.5,3.2,7.5,7.3c0,4.1-3.4,7.4-7.5,7.4
			c-8.3,0-15,6.7-15,14.9v13.4L23.5,147.1C9.4,151.8,0,165.4,0,180.6C0,200.1,15.3,216,34.1,216H106v167.9c0,9.9,8.6,18.1,18.5,18.1
			H145V185.7c0-10.9-8.8-19.8-19.3-19.8c-10.8,0-19.7,8.8-19.7,19.5v0.6H34.1c-2.7,0-4.9-2.4-4.9-5.4c0-2.3,1.4-4.4,3.4-5.1
			l221.9-75.4c1-0.3,2-0.3,2.9,0l221.9,75.4c2,0.7,3.4,2.8,3.4,5.1c0,2.9-2.2,5.4-4.9,5.4H416v30h61.9c18.8,0,34.1-15.9,34.1-35.4
			C512,165.4,502.6,151.8,488.5,147.1z"/></svg>