<svg xmlns="http://www.w3.org/2000/svg" enable-background="new 0 0 512 512" viewBox="0 0 512 512"><path fill="#94c1ff" d="M448.724,67.501v175.875h-26.575V67.501c0-19.613-15.998-35.611-35.611-35.611c-19.666,0-35.611,15.998-35.611,35.611h-26.575c0-34.282,27.904-62.186,62.186-62.186S448.724,33.219,448.724,67.501z"/><path fill="#d7e9ff" d="M505.808,261.09L505.808,261.09c0,9.775-7.924,17.698-17.698,17.698H23.891c-9.775,0-17.698-7.924-17.698-17.698v0c0-9.775,7.924-17.698,17.698-17.698h464.219C497.884,243.392,505.808,251.316,505.808,261.09z"/><path fill="#94c1ff" d="M407.672,481.111H104.328c-44.424,0-80.436-36.013-80.436-80.436V278.789h464.216v121.885C488.108,445.098,452.096,481.111,407.672,481.111z"/><path fill="#d7e9ff" d="M151.036 481.119v14.933c0 5.871-4.759 10.63-10.63 10.63h-24.831c-5.871 0-10.63-4.759-10.63-10.63v-14.933H151.036zM407.055 481.119v14.933c0 5.871-4.759 10.63-10.63 10.63h-24.831c-5.871 0-10.63-4.759-10.63-10.63v-14.933H407.055zM377.07 88.762v17.388h-78.862V88.762c0-11.742 9.519-21.26 21.26-21.26h36.341C367.552 67.501 377.07 77.02 377.07 88.762z"/><path fill="#116fff" d="M511.123,261.092c0-12.691-10.324-23.015-23.015-23.015h-34.07V67.502C454.038,30.281,423.756,0,386.536,0c-35.428,0-64.51,27.457-67.229,62.204c-14.577,0.09-26.413,11.961-26.413,26.559v12.073h-4.152c-2.938,0-5.315,2.377-5.315,5.315c0,2.938,2.377,5.315,5.315,5.315c11.83,0,62.316,0,97.794,0c2.938,0,5.315-2.377,5.315-5.315c0-2.938-2.377-5.315-5.315-5.315h-4.152V88.763c0-14.338-11.437-25.986-25.657-26.483c2.485-14.223,14.89-25.075,29.809-25.075c16.708,0,30.297,13.589,30.297,30.297v170.575H23.892c-12.691,0-23.015,10.324-23.015,23.015c0,10.854,7.575,19.92,17.7,22.334v117.249c0,45.7,35.959,83.053,81.055,85.515v9.866c0,8.793,7.152,15.945,15.945,15.945h24.831c8.793,0,15.945-7.152,15.945-15.945v-9.628h199.294v9.628c0,8.793,7.152,15.945,15.945,15.945h24.831c8.793,0,15.945-7.152,15.945-15.945v-9.866c45.096-2.462,81.055-39.815,81.055-85.515V283.426C503.548,281.012,511.123,271.945,511.123,261.092z M371.753,88.763v12.073h-68.229V88.763c0-8.793,7.152-15.945,15.945-15.945c3.727,0,30.809,0,36.339,0C364.601,72.817,371.753,79.97,371.753,88.763z M386.536,26.575c-20.762,0-37.968,15.546-40.579,35.612h-16.044c2.689-28.88,27.058-51.557,56.623-51.557c31.361,0,56.872,25.511,56.872,56.872v170.559h-15.945V67.502C427.463,44.934,409.104,26.575,386.536,26.575z M145.723,496.055c0,2.933-2.382,5.315-5.315,5.315h-24.831c-2.933,0-5.315-2.382-5.315-5.315v-9.623h35.461V496.055z M401.738,496.055c0,2.933-2.382,5.315-5.315,5.315h-24.831c-2.933,0-5.315-2.382-5.315-5.315v-9.623h35.461V496.055z M482.793,400.674c0,41.42-33.702,75.122-75.122,75.122H104.329c-41.42,0-75.122-33.702-75.122-75.122V284.106h453.586V400.674z M488.108,273.476H23.892c-6.831,0-12.385-5.554-12.385-12.385c0-6.831,5.554-12.384,12.385-12.384h464.216c6.831,0,12.384,5.554,12.384,12.384C500.493,267.923,494.939,273.476,488.108,273.476z"/><path fill="#116fff" d="M337.641 140.252c2.938 0 5.315-2.377 5.315-5.315v-8.502c0-2.938-2.377-5.315-5.315-5.315-2.938 0-5.315 2.377-5.315 5.315v8.502C332.326 137.875 334.703 140.252 337.641 140.252zM332.326 165.54c0 2.938 2.377 5.315 5.315 5.315 2.938 0 5.315-2.377 5.315-5.315v-8.502c0-2.938-2.377-5.315-5.315-5.315-2.938 0-5.315 2.377-5.315 5.315V165.54zM332.326 196.143c0 2.938 2.377 5.315 5.315 5.315 2.938 0 5.315-2.377 5.315-5.315v-8.502c0-2.938-2.377-5.315-5.315-5.315-2.938 0-5.315 2.377-5.315 5.315V196.143zM367.839 125.34c-.602-2.87-3.421-4.708-6.296-4.106-2.87.602-4.708 3.421-4.106 6.296l1.749 8.32c.604 2.885 3.442 4.709 6.296 4.106 2.87-.602 4.708-3.421 4.106-6.296L367.839 125.34zM374.141 155.289c-.602-2.87-3.431-4.708-6.296-4.106-2.87.602-4.708 3.421-4.106 6.296l1.749 8.315c.604 2.885 3.442 4.709 6.296 4.106 2.87-.602 4.708-3.421 4.106-6.296L374.141 155.289zM370.04 187.423l1.749 8.32c.604 2.885 3.442 4.709 6.296 4.106 2.87-.602 4.708-3.421 4.106-6.296l-1.749-8.32c-.602-2.87-3.441-4.718-6.296-4.106C371.276 181.729 369.438 184.548 370.04 187.423zM309.794 139.956c2.85.602 5.691-1.217 6.296-4.106l1.749-8.32c.602-2.876-1.235-5.694-4.106-6.296-2.865-.602-5.694 1.235-6.296 4.106l-1.749 8.32C305.086 136.536 306.924 139.354 309.794 139.956zM301.136 155.289l-1.749 8.315c-.602 2.876 1.235 5.694 4.106 6.296 2.85.602 5.691-1.217 6.296-4.106l1.749-8.315c.602-2.876-1.235-5.694-4.106-6.296C304.578 150.581 301.739 152.419 301.136 155.289zM294.84 185.233l-1.749 8.32c-.602 2.876 1.235 5.694 4.106 6.296 2.85.602 5.691-1.217 6.296-4.106l1.749-8.32c.602-2.876-1.235-5.694-4.106-6.296C298.261 180.515 295.443 182.363 294.84 185.233z"/></svg>