<svg xmlns="http://www.w3.org/2000/svg" data-name="Layer 2" viewBox="0 0 24 24"><path fill="white" d="M15.91,11.41a11,11,0,0,0-3.2-8.19L12,2.52l-.71.7A10.89,10.89,0,0,0,8.07,11c0,.14,0,.28,0,.41A9.92,9.92,0,0,0,3,10H2v1a10,10,0,0,0,9,9.95V21h2v-.05A10,10,0,0,0,22,11V10H21A9.92,9.92,0,0,0,15.91,11.41ZM12,5.43a9,9,0,0,1,1.63,7.84A10,10,0,0,0,12,15.67a10,10,0,0,0-1.63-2.4,9.07,9.07,0,0,1-.3-2.27A8.91,8.91,0,0,1,12,5.43ZM4.07,12.07a8,8,0,0,1,6.86,6.86A8,8,0,0,1,4.07,12.07Zm9,6.86a8,8,0,0,1,6.86-6.86A8,8,0,0,1,13.07,18.93Z"/></svg>